<?xml version="1.0" encoding="utf-8"?>
<!-- Generator: Adobe Illustrator 28.1.0, SVG Export Plug-In . SVG Version: 6.00 Build 0)  -->
<svg version="1.1" id="Layer_1" xmlns="http://www.w3.org/2000/svg" xmlns:xlink="http://www.w3.org/1999/xlink" x="0px" y="0px"
	 viewBox="0 0 138 45" style="enable-background:new 0 0 138 45;" xml:space="preserve">
<style type="text/css">
	.st0{fill:#333F48;}
	.st1{fill:#236192;}
	.st2{fill:#4C8C2B;}
	.st3{fill:#E87722;}
</style>
<g>
	<g>
		<path class="st0" d="M61.81,37.08c-1.69,0-3.23-0.31-4.65-0.89c-1.39-0.59-2.59-1.42-3.6-2.43c-1.02-1.02-1.79-2.22-2.34-3.6
			c-0.55-1.35-0.83-2.83-0.83-4.37v-0.06c0-1.54,0.28-3.02,0.83-4.37c0.55-1.35,1.35-2.56,2.37-3.6c1.02-1.05,2.25-1.85,3.63-2.46
			c1.39-0.62,2.96-0.89,4.65-0.89s3.23,0.31,4.65,0.89c1.39,0.59,2.59,1.42,3.6,2.43c1.02,1.02,1.79,2.22,2.34,3.6
			c0.55,1.35,0.83,2.83,0.83,4.37v0.06c0,1.54-0.28,3.02-0.83,4.37c-0.55,1.35-1.35,2.56-2.37,3.6c-1.02,1.05-2.25,1.85-3.63,2.46
			C65.04,36.77,63.5,37.08,61.81,37.08z M61.87,33.51c1.08,0,2.09-0.22,2.99-0.62c0.92-0.4,1.69-0.95,2.34-1.66
			c0.65-0.71,1.14-1.51,1.51-2.46c0.37-0.92,0.55-1.94,0.55-3.02v-0.06c0-1.08-0.18-2.06-0.55-3.02c-0.37-0.95-0.89-1.79-1.54-2.46
			c-0.65-0.71-1.45-1.26-2.37-1.66c-0.92-0.43-1.91-0.62-3.02-0.62c-1.08,0-2.09,0.22-2.99,0.62c-0.92,0.4-1.69,0.95-2.34,1.66
			c-0.65,0.71-1.14,1.51-1.51,2.46c-0.37,0.95-0.55,1.94-0.55,3.02v0.06c0,1.08,0.18,2.06,0.55,3.02c0.37,0.95,0.86,1.79,1.54,2.46
			c0.65,0.71,1.45,1.26,2.37,1.66C59.77,33.32,60.79,33.51,61.87,33.51z"/>
		<path class="st0" d="M86.07,37.08c-1.6,0-3.08-0.28-4.43-0.89c-1.35-0.59-2.56-1.39-3.54-2.4s-1.76-2.22-2.34-3.6
			c-0.55-1.39-0.83-2.86-0.83-4.43v-0.06c0-1.57,0.28-3.05,0.83-4.4c0.55-1.35,1.32-2.56,2.34-3.6c1.02-1.05,2.19-1.85,3.6-2.43
			c1.39-0.59,2.89-0.89,4.56-0.89c1.02,0,1.91,0.09,2.74,0.25c0.83,0.15,1.57,0.4,2.28,0.71c0.68,0.31,1.32,0.68,1.91,1.08
			c0.59,0.43,1.14,0.89,1.66,1.39l-2.46,2.86c-0.89-0.8-1.82-1.48-2.8-1.97c-0.99-0.49-2.09-0.74-3.36-0.74
			c-1.05,0-2,0.22-2.89,0.62c-0.89,0.4-1.66,0.95-2.28,1.66c-0.65,0.71-1.14,1.51-1.51,2.46c-0.37,0.95-0.55,1.94-0.55,3.02v0.06
			c0,1.08,0.18,2.06,0.55,3.02c0.37,0.95,0.86,1.79,1.51,2.49c0.65,0.71,1.39,1.26,2.28,1.66c0.89,0.4,1.85,0.62,2.89,0.62
			c0.68,0,1.29-0.06,1.85-0.22c0.55-0.12,1.11-0.31,1.6-0.55s0.99-0.52,1.45-0.89c0.46-0.37,0.92-0.74,1.39-1.2l2.46,2.49
			c-0.55,0.59-1.14,1.11-1.76,1.6s-1.29,0.89-2,1.23s-1.48,0.62-2.34,0.8C88.01,36.99,87.09,37.08,86.07,37.08z"/>
		<path class="st0" d="M97.68,14.75h3.85v18.42h11.55v3.51h-15.4V14.75z"/>
		<path class="st0" d="M124.14,37.08c-1.6,0-3.08-0.28-4.43-0.89c-1.35-0.59-2.56-1.39-3.54-2.4c-0.99-1.02-1.76-2.22-2.34-3.6
			c-0.55-1.39-0.83-2.86-0.83-4.43v-0.06c0-1.57,0.28-3.05,0.83-4.4c0.55-1.35,1.32-2.56,2.34-3.6c1.02-1.05,2.19-1.85,3.6-2.43
			c1.39-0.59,2.89-0.89,4.56-0.89c1.02,0,1.91,0.09,2.74,0.25c0.83,0.15,1.57,0.4,2.28,0.71c0.71,0.31,1.32,0.68,1.91,1.08
			c0.59,0.43,1.14,0.89,1.66,1.39l-2.46,2.86c-0.86-0.8-1.82-1.48-2.8-1.97s-2.09-0.74-3.36-0.74c-1.05,0-2,0.22-2.89,0.62
			c-0.89,0.4-1.66,0.95-2.28,1.66c-0.65,0.71-1.14,1.51-1.51,2.46c-0.37,0.95-0.55,1.94-0.55,3.02v0.06c0,1.08,0.18,2.06,0.55,3.02
			c0.37,0.95,0.86,1.79,1.51,2.49c0.65,0.71,1.39,1.26,2.28,1.66c0.89,0.4,1.85,0.62,2.89,0.62c0.68,0,1.29-0.06,1.85-0.22
			c0.55-0.12,1.11-0.31,1.6-0.55c0.49-0.25,0.99-0.52,1.45-0.89c0.46-0.37,0.92-0.74,1.39-1.2l2.46,2.49
			c-0.55,0.59-1.14,1.11-1.76,1.6s-1.29,0.89-2,1.23c-0.71,0.34-1.48,0.62-2.34,0.8C126.11,36.99,125.15,37.08,124.14,37.08z"/>
	</g>
	<g>
		<path class="st1" d="M35.88,15.12c-1.6-9.85-10.9-16.51-20.76-14.87S-1.39,11.18,0.25,21c1.2,7.36,6.71,12.93,13.52,14.6
			c0.03-0.52,0.09-1.08,0.22-1.6c-4.9-1.69-8.75-6.07-9.67-11.64C2.99,14.29,8.22,6.71,16.04,5.42C23,4.28,29.66,8.5,31.93,15.15
			c1.6,0.59,3.02,1.45,4.16,2.59C36.12,16.88,36.03,15.98,35.88,15.12z"/>
		<path class="st2" d="M32.12,11.89c-7.48-2.03-15.21,2.34-17.28,9.82c-0.86,3.08-0.59,6.22,0.52,8.99c0.4-0.55,0.86-1.08,1.39-1.51
			c-0.34-1.76-0.31-3.6,0.22-5.45c1.72-6.22,7.98-9.95,14.01-8.28s9.55,8.04,7.82,14.29c-1.17,4.25-4.43,7.3-8.31,8.31
			c-0.15,0.46-0.34,0.92-0.55,1.35c5.54-0.62,10.44-4.53,12.01-10.25C43.98,21.68,39.57,13.95,32.12,11.89z"/>
		<path class="st3" d="M28.02,26.51c-4.62-3.05-10.84-1.76-13.89,2.89c-3.05,4.62-1.76,10.84,2.89,13.89
			c4.62,3.05,10.87,1.76,13.89-2.89C33.97,35.78,32.67,29.56,28.02,26.51z M28.67,39.88c-2.4,3.66-7.21,4.74-10.75,2.43
			c-3.54-2.31-4.47-7.18-2.06-10.84c2.4-3.66,7.21-4.74,10.75-2.43C30.15,31.38,31.07,36.25,28.67,39.88z"/>
	</g>
</g>
<g>
	<path class="st0" d="M136.36,17.49c-0.22,0-0.4-0.03-0.55-0.12c-0.18-0.06-0.34-0.18-0.46-0.31c-0.12-0.12-0.22-0.28-0.31-0.46
		c-0.06-0.18-0.12-0.37-0.12-0.55l0,0c0-0.18,0.03-0.37,0.12-0.55c0.06-0.18,0.18-0.34,0.31-0.46c0.12-0.12,0.28-0.25,0.46-0.31
		s0.37-0.12,0.55-0.12c0.22,0,0.4,0.03,0.55,0.12c0.18,0.06,0.34,0.18,0.46,0.31c0.12,0.12,0.22,0.28,0.31,0.46
		c0.06,0.18,0.12,0.37,0.12,0.55l0,0c0,0.18-0.03,0.37-0.12,0.55c-0.06,0.18-0.18,0.34-0.31,0.46c-0.12,0.12-0.28,0.25-0.46,0.31
		C136.76,17.46,136.58,17.49,136.36,17.49z M136.36,17.34c0.18,0,0.34-0.03,0.49-0.09c0.15-0.06,0.28-0.15,0.4-0.28
		c0.12-0.12,0.22-0.25,0.28-0.4c0.06-0.15,0.09-0.31,0.09-0.49l0,0c0-0.18-0.03-0.34-0.09-0.49c-0.06-0.15-0.15-0.28-0.28-0.4
		c-0.12-0.12-0.25-0.22-0.4-0.28c-0.15-0.06-0.31-0.09-0.49-0.09c-0.18,0-0.34,0.03-0.49,0.09c-0.15,0.06-0.28,0.15-0.4,0.28
		c-0.12,0.12-0.22,0.25-0.28,0.4c-0.06,0.15-0.09,0.31-0.09,0.49l0,0c0,0.18,0.03,0.34,0.09,0.49c0.06,0.15,0.15,0.28,0.28,0.4
		c0.12,0.12,0.25,0.22,0.4,0.28C136.02,17.31,136.18,17.34,136.36,17.34z M135.78,15.27h0.68c0.22,0,0.37,0.06,0.46,0.15
		c0.09,0.09,0.12,0.18,0.12,0.34l0,0c0,0.12-0.03,0.22-0.09,0.31c-0.06,0.06-0.15,0.12-0.25,0.18l0.37,0.55h-0.4l-0.34-0.49l0,0
		h-0.22v0.49h-0.34V15.27z M136.45,16.01c0.09,0,0.15-0.03,0.18-0.06c0.03-0.03,0.06-0.09,0.06-0.15l0,0c0-0.06-0.03-0.12-0.06-0.15
		c-0.06-0.03-0.12-0.06-0.18-0.06h-0.34v0.43H136.45z"/>
</g>
</svg>
