<?xml version="1.0" encoding="utf-8"?>
<!-- Generator: Adobe Illustrator 16.0.0, SVG Export Plug-In . SVG Version: 6.00 Build 0)  -->
<!DOCTYPE svg PUBLIC "-//W3C//DTD SVG 1.1//EN" "http://www.w3.org/Graphics/SVG/1.1/DTD/svg11.dtd">
<svg version="1.1" xmlns="http://www.w3.org/2000/svg" xmlns:xlink="http://www.w3.org/1999/xlink" x="0px" y="0px" width="250px"
	 height="250.5px" viewBox="0 0 250 250.5" enable-background="new 0 0 250 250.5" xml:space="preserve">
<g id="Layer_2_1_" display="none">
	<rect x="-0.229" display="inline" fill="#70AB44" width="250" height="250.5"/>
</g>
<g id="Layer_1" display="none">
	<g id="Layer_2">
	</g>
	<circle opacity="0.3" fill="green" enable-background="new    " cx="125.274" cy="125.365" r="124.667"/>
	
		<radialGradient id="SVGID_1_" cx="141.9941" cy="667.7559" r="115.917" gradientTransform="matrix(1 0 0 1 -16.7197 -542.3906)" gradientUnits="userSpaceOnUse">
		<stop  offset="0" style="stop-color:#FBF5E8"/>
		<stop  offset="1" style="stop-color:#F8F7F6"/>
	</radialGradient>
	<circle fill="url(#SVGID_1_)" cx="125.274" cy="125.365" r="115.917"/>
	<path display="inline" fill="green" d="M105.525,200.691c1.209-0.035,2.24,1.021,2.275,2.33c0.018,1.266-0.869,2.256-2.087,2.322
		c-1.45,0.068-2.362-0.816-2.374-2.287C103.317,201.672,104.188,200.734,105.525,200.691"/>
	<path display="inline" fill="green" d="M147.105,201.025c1.367-0.018,2.301,0.922,2.33,2.367c0.029,1.256-1.021,2.332-2.236,2.32
		c-1.277-0.023-2.193-0.986-2.211-2.32C144.967,202.008,145.822,201.043,147.105,201.025"/>
	<path display="inline" fill="green" d="M126.695,206.447c1.191,0.033,2.254,1.213,2.199,2.436
		c-0.062,1.264-1.023,2.287-2.146,2.279c-1.339-0.018-2.371-1.109-2.354-2.453C124.402,207.463,125.465,206.43,126.695,206.447"/>
	<path display="inline" fill="green" d="M165.041,213.701c-1.309,0.025-2.324-0.947-2.342-2.213
		c-0.033-1.402,0.896-2.391,2.299-2.383c1.264,0,2.229,0.979,2.279,2.289C167.311,212.66,166.305,213.701,165.041,213.701"/>
	<path display="inline" fill="green" d="M88.32,208.332c1.209-0.053,2.232,1.014,2.264,2.322c0.029,1.266-0.869,2.256-2.078,2.312
		c-1.445,0.078-2.362-0.799-2.384-2.287C86.113,209.287,86.979,208.365,88.32,208.332"/>
	<path display="inline" fill="green" d="M66.108,99.969c-1.269-2.763-2.538-5.507-3.562-7.719
		c-2.195-1.333-3.891-2.366-5.744-3.476c-5.795,1.023-11.139-0.49-15.935-4.269c2.069-3.2,5.919-4.646,12.175-4.706
		c-1.234-1.841-2.654-3.604-3.648-5.575c-1.032-2.039-1.26-4.337-0.951-6.841c3.843,0.56,7.051,2.211,10.429,4.629
		c-1.729-5.713-0.831-10.531,3.003-15.074c5.297,5.661,7.568,12.098,6.651,19.652c2.892,2.649,3.997,5.782,2.956,9.594
		c-0.139,0.499,0.077,1.196,0.34,1.687c1.565,2.899,3.188,5.765,4.797,8.63c0.193-0.095,0.391-0.189,0.584-0.293
		c-0.297-0.671-0.477-1.445-0.912-2.03c-3.771-5.016-3.084-11.461-0.146-16.056c0.146-0.215,0.322-0.413,0.761-0.964
		c1.184,1.635,2.418,3.046,3.301,4.664c2.749,4.964,3.309,9.998,0.133,15.109c-1.402,2.245-0.594,4.327,2.298,6.358
		c1.476-7.478,1.604-14.929,1.132-22.483C73.54,73.2,66.147,63.908,66.264,49.925c4.443,1.479,7.898,3.838,10.463,7.503
		c2.654,3.812,2.753,8.002,1.953,12.605c1.316,1.05,2.723,2.177,4.125,3.304c0.129-0.077,0.271-0.163,0.404-0.24
		c-0.442-2.856-0.868-5.714-1.346-8.57c-0.452-2.805-0.964-5.602-1.52-8.759c4.363,2.426,6.965,5.979,9.367,9.731
		c2.562,3.992,3.031,8.269,1.647,12.932c1.065,0.551,2.103,1.085,3.411,1.756c2.633-5.662,3.377-11.246,1.256-17.184
		c-3.11-0.817-5.301-2.684-6.475-5.799c-7.305-0.646-12.941-4.07-17.093-10.574c5.954-1.738,11.362-0.758,17.055,1.41
		c-1.708-4.594-2.482-9.034-0.899-13.869c4.701,2.168,7.955,5.412,9.551,10.367c1.084-5.721,4.307-9.766,8.991-12.854
		c2.122,4.845,2.978,13.276-2.443,19.024c1.484,3.08,1.183,6.152-0.642,9.12c3.924,7.735,3.773,15.729,1.604,24.006
		c1.124,0.801,2.216,1.558,3.575,2.513c1.52-3.846,4.909-6.789,3.834-11.332c-0.225-0.955-0.719-1.936-1.33-2.71
		c-3.441-4.337-5.679-9.112-5.455-14.782c0.125-3.304,1.016-6.401,2.926-9.146c5.382,4.044,9.004,11.314,6.29,18.869
		c-0.71,2.005-1.394,3.992-0.594,6.178c1.553-1.772,3.377-13.026,3.063-18.791c-3.589-3.511-5.447-7.839-4.699-13.002
		c0.715-4.965,3.107-9.051,7.018-12.51c1.438,2.891,2.129,5.824,2.611,8.802c1.588,10.032,0.551,19.919-1.463,29.771
		c-1.527,7.521-3.726,14.834-6.607,21.941c-0.225,0.542-0.396,1.109-0.543,1.515c1.785,2.306,3.459,4.482,5.133,6.65
		c0.115-0.025,0.236-0.052,0.357-0.068c-0.242-1.05-0.344-2.143-0.724-3.123c-2.426-6.118-1.444-11.935,1.55-17.545
		c0.202-0.369,0.48-0.696,0.834-1.188c1.953,2.564,2.771,5.378,3.377,8.286c0.879,4.165-0.219,8.002-1.823,11.729
		c-1.433,3.304-1.546,6.418-0.245,9.886c1.492,3.992,2.279,8.243,3.377,12.441c0.206-1.101,0.344-2.28,0.641-3.416
		c0.922-3.562,1.805-7.141,2.904-10.651c0.697-2.255,0.619-4.362-0.172-6.522c-0.891-2.435-1.979-4.845-2.564-7.374
		c-1.232-5.24,0.25-10.041,3.139-15.015c0.877,1.627,1.74,2.874,2.262,4.242c1.938,5.024,2.438,10.102,0.332,15.247
		c-0.349,0.86-0.398,1.833-0.25,2.874c1.666-2.194,3.312-4.414,4.947-6.583c-1.531-4.302-3.256-8.526-4.562-12.88
		c-3.311-10.962-5.713-22.088-5.365-33.644c0.139-4.732,0.611-9.422,2.229-13.921c0.237-0.663,0.534-1.282,0.814-1.928
		c8.389,5.163,9.777,17.948,2.787,25.719c-0.008,6.307,1.166,12.553,3.141,18.653c0.855-1.678,0.572-3.33-0.1-4.947
		c-1.32-3.252-1.77-6.608-1.045-10.067c0.877-4.146,3.406-7.278,6.4-10.299c1.812,1.944,2.494,4.207,3.018,6.53
		c1.367,6.109-0.264,11.642-4.01,16.357c-2.818,3.562-3.048,6.857-0.814,10.583c0.914,1.522,1.729,3.114,2.686,4.836
		c1.205-0.869,2.285-1.644,3.43-2.487c-2.121-8.208-2.551-16.271,1.271-24.135c-1.883-2.908-2.15-5.979-0.743-9.215
		c-5.442-5.628-4.612-12.227-3.079-19.283c5.023,3.158,8.319,7.193,9.416,12.691c1.248-1.97,2.285-4.146,3.842-5.85
		c1.523-1.679,3.588-2.857,5.705-4.483c1.617,5.067,1.17,9.481-0.61,14.206c5.603-1.988,11.03-3.063,17.046-1.291
		c-3.938,6.6-9.568,9.912-16.906,10.712c-1.119,3.003-3.254,4.938-6.4,5.739c-2.232,5.945-1.248,11.538,1.4,17.234
		c1.151-0.567,2.188-1.093,3.271-1.644c-2.84-10.583,3.482-16.821,10.205-22.87c0.195,0.052,0.387,0.12,0.576,0.181
		c-0.846,5.653-1.688,11.332-2.521,17.011c0.139,0.104,0.275,0.206,0.432,0.318c1.307-1.041,2.615-2.073,3.924-3.106
		c-0.817-5.016-0.725-9.68,2.521-13.81c2.521-3.184,5.859-4.982,9.523-6.548c1.268,8.975-2.778,20.582-16.623,31.019
		c-0.914,4.543-0.066,18.723,1.309,22.457c2.514-1.247,3.493-3.915,2.1-6.135c-3.662-5.808-2.684-11.357,0.836-16.77
		c0.662-1.024,1.438-1.962,2.314-3.133c2.45,3.038,3.284,6.265,3.396,9.758c0.111,3.511-1.814,6.315-3.467,9.224
		c0.205,0.087,0.412,0.189,0.627,0.293c1.771-3.123,3.537-6.221,5.273-9.284c-1.324-4.087-0.791-7.58,2.566-10.489
		c-0.947-7.494,0.971-14.119,6.436-19.858c3.846,4.449,4.99,9.155,3.51,14.593c1.738-0.938,3.252-1.832,4.861-2.538
		c1.602-0.723,3.305-1.222,5.24-1.91c0.629,5.18-0.912,9.189-4.697,12.898c5.266-0.646,9.293,0.852,12.785,4.543
		c-4.922,4.052-10.256,5.575-16.064,4.629c-1.9,1.146-3.639,2.194-5.695,3.441c-0.973,2.194-2.107,4.75-3.252,7.313
		c3.226-2.882,6.308-5.824,10.582-6.969c4.148-1.102,8.295-1.016,12.599-0.198c-1.584,5.103-4.989,8.226-9.284,10.66
		c-3.252,1.824-6.591,2.169-10.188,1.239c-3.804-0.989-6.297,0.336-8.002,3.933c-0.603,1.29-1.316,2.564-2.211,4.285
		c2.625-0.112,4.825-0.052,6.987-0.353c2.83-0.388,5.636-0.981,8.422-1.646c1.652-0.396,2.892-1.463,3.527-3.115
		c2.221-5.834,7.84-7.09,13.062-5.266c2.651,0.929,5.096,2.323,6.895,5.008c-14.207,5.137-28.487,8.604-43.735,7.451
		c3.89-7.71,7.677-15.213,11.528-22.854c-1.299-0.646-2.186-1.075-3.219-1.592c-3.553,7.297-8.285,13.604-13.697,19.412
		c-0.188,0.181-0.43,0.31-0.998,0.714c-2.426-9.232-2.993-18.396-2.719-27.672c-0.172-0.06-0.328-0.129-0.5-0.206
		c-0.283,0.551-0.81,1.102-0.81,1.652c0,5.153,0.097,10.308,0.173,15.47c0.086,5.146,0.672,10.352-1.136,15.333
		c-3.838,10.73-11.178,17.594-22.394,20.055c-0.524,0.121-1.08,0.121-1.616,0.13c-0.479,0.018-0.961-0.033-1.728-0.076
		c0-1.474,0.039-2.865-0.009-4.252c-0.297-7.984,0.396-15.839,2.716-23.532c2.521-8.338,7.188-15.152,14.147-20.357
		c4.946-3.691,10.051-7.185,15.008-10.876c1.797-1.343,3.354-3.003,4.817-4.775c-5.809,5.18-12.649,8.664-19.455,12.631
		c-3.854-6.823-4.95-13.672-3.016-21.098c-0.629-0.258-1.209-0.49-1.982-0.809c-3.293,7.771-2.319,15.428-0.034,23.076
		c-2.347,1.919-4.591,3.777-6.981,5.748c-3.56-5.567-6.738-11.203-8.703-17.458c-1.948-6.204-3.08-12.536-3.11-19.196
		c-0.498-0.112-0.931-0.181-1.631-0.31c0.268,7.09,1.545,13.792,3.752,20.254c2.192,6.437,4.797,12.761,7.291,19.291
		c-7.882,8.673-10.136,19.781-11.527,31.251h-6.08c-1.355-11.427-3.91-22.44-12.162-31.362
		c5.812-12.271,10.235-24.953,10.781-38.849H120c0.146,13.405-3.881,25.434-11.319,36.568c-2.35-1.944-4.604-3.77-6.926-5.688
		c2.229-7.623,2.955-15.221-0.318-22.956c-0.697,0.258-1.316,0.499-2.057,0.8c2.078,7.236,1.14,14.051-2.676,20.856
		c-2.19-1.161-4.26-2.263-6.462-3.433c-0.228,0.378-0.448,0.766-0.577,0.946c3.704,2.934,7.283,5.704,10.816,8.562
		c5.334,4.293,8.418,10.109,10.643,16.434c3.184,9.018,3.602,18.379,3.239,27.828c-0.008,0.195-0.099,0.402-0.185,0.705
		c-3.132,0.223-6.045-0.533-8.785-1.867c-11.521-5.566-17.939-14.542-18.017-27.621c-0.048-7.271,0.003-14.55-0.013-21.846
		c0-0.731,0.197-1.756-1.369-1.644c0.396,9.481-0.115,18.895-2.357,28.549c-6.294-6.006-11.005-12.751-14.902-20.229
		c-0.984,0.465-1.896,0.895-3.029,1.42c3.408,7.787,7.207,15.29,11.861,22.87c-16.055,1.265-30.752-3.158-45.473-7.494
		c-0.044-0.198-0.091-0.422-0.139-0.629c1.613-0.895,3.176-1.97,4.875-2.667c3.217-1.299,6.479-2.556,10.075-1.721
		c3.141,0.74,5.146,2.701,6.604,5.523c0.602,1.171,1.686,2.487,2.852,2.9c5.047,1.78,10.355,2.048,16.103,2.021
		c-1.411-2.538-2.121-5.162-4.077-6.995c-1.898-1.772-4.277-1.824-6.729-1.152c-3.304,0.903-6.384,0.274-9.396-1.326
		c-3.48-1.841-6.467-4.181-8.438-7.648c-0.438-0.783-0.782-1.618-1.252-2.616c8.304-1.376,15.674-0.49,21.594,5.859
		c0.551,0.577,1.312,0.973,1.965,1.446c-0.06,0.025-0.107,0.052-0.15,0.095C66.018,100.021,66.061,99.995,66.108,99.969
		 M205.377,104.77c-1.145-0.318-1.893,0.181-2.373,1.179h-0.078c-0.078,0.061-0.01,0.009,0.043-0.043
		c0.791-0.396,1.584-0.783,2.375-1.196c0.051-0.103,0.104-0.206,0.033-0.077C205.361,104.512,205.377,104.632,205.377,104.77
		 M102.854,104.056l0.082-0.052l-0.104,0.034c-0.106-0.43-0.12-0.93-0.327-1.291c-1.742-2.934-4.133-5.266-6.908-7.219
		c-0.263-0.181-0.611-0.258-0.973-0.412c0.014,5.729,3.824,11.134,7.925,11.562c-1.833-1.755-3.382-3.235-5.013-4.792
		c0.525-0.474,0.986-0.896,1.559-1.395C100.427,101.758,101.636,102.903,102.854,104.056 M177.018,68.572
		c3.234-4.612,5.268-9.654,5.455-15.419c-5.076,2.125-9.086,8.218-7.545,12.709c0.799-2.143,1.582-4.199,2.418-6.445
		c0.799,0.302,1.461,0.56,2.201,0.853c-0.326,0.929-0.645,1.678-0.859,2.461c-0.559,1.944-1.064,3.897-1.602,5.833l-0.043-0.086
		L177.018,68.572z M89.865,84.826c-0.154,0.508-0.254,0.662-0.242,0.8c0.151,6.564,0,13.147,0.557,19.679
		c0.787,8.948,4.98,16.279,12.152,21.759c2.509,1.918,5.408,3.08,9.086,3.492c-0.399-1.351-0.546-2.478-1.031-3.397
		c-0.912-1.771-2.686-2.375-4.439-3.037c-2.01-0.749-4.122-1.472-5.855-2.668c-3.718-2.615-5.585-6.548-6.746-10.824
		c-0.297-1.093-0.293-2.271-0.443-3.579c8.961,2.005,14.64,7.253,17.544,15.677c0.211-0.31,0.271-0.404,0.259-0.508
		c-0.259-2.323-0.518-4.638-0.791-6.952c-0.389-3.287-2.186-5.205-5.435-5.773c-5.175-0.869-9.091-3.347-10.94-8.526
		c-1.07-3.012-1.76-6.075-1.346-9.896c2.18,1.266,4.172,2.125,5.807,3.451c3.709,2.959,6.324,6.814,8.282,11.125
		c0.326,0.723,0.834,1.368,1.26,2.048c0.159-0.121,0.323-0.224,0.474-0.354C105.284,97.285,97.553,91.245,89.865,84.826
		 M141.409,122.142c0.202,0.086,0.409,0.181,0.61,0.258c2.676-8.483,8.463-13.431,16.963-15.462
		c0.086,0.275,0.207,0.482,0.207,0.672c-0.207,5.661-4.164,14.196-11.379,16.142c-1.498,0.413-3.018,0.955-4.343,1.729
		c-1.771,1.023-2.46,2.753-2.282,4.74c0.228,0.131,0.32,0.232,0.412,0.225c0.332-0.018,0.656-0.018,0.969-0.094
		c4.285-1.102,8.035-3.062,11.053-6.437c5.605-6.272,8.461-13.561,8.617-21.933c0.102-5.472,0-10.962-0.027-16.442
		c0-0.181-0.146-0.345-0.336-0.774c-7.652,6.315-15.207,12.441-17.672,22.612c0.624-0.482,1.105-1.076,1.424-1.755
		c2.111-4.475,4.723-8.562,8.635-11.668c1.6-1.273,3.381-2.211,5.91-2.805c-0.344,2.719-0.42,5.059-0.963,7.279
		c-0.99,4-2.668,7.666-6.746,9.447c-1.674,0.723-3.477,1.161-5.257,1.583c-2.181,0.508-4.009,1.651-4.526,3.743
		C141.959,116.111,141.801,119.157,141.409,122.142 M63.454,78.286c-2.767,0.044-5.051,2.418-4.981,5.181
		c0.068,2.701,2.494,4.964,5.257,4.912c2.714-0.051,4.899-2.34,4.874-5.076C68.578,80.532,66.233,78.26,63.454,78.286
		 M97.621,59.667c2.732-0.018,4.85-2.237,4.824-5.06c-0.018-2.771-2.389-5.094-5.133-5.051c-2.711,0.034-4.832,2.289-4.797,5.137
		C92.545,57.524,94.756,59.675,97.621,59.667 M158.828,54.392c-0.008-2.892-2.186-5.146-4.955-5.163
		c-2.711-0.017-4.986,2.246-4.965,4.939c0.017,2.822,2.31,5.128,5.037,5.094C156.582,59.228,158.846,56.982,158.828,54.392
		 M188.324,88.009c2.77-0.026,5.041-2.212,5.076-4.87c0.035-2.754-2.264-4.99-5.111-4.99c-2.641,0-4.92,2.211-4.912,4.783
		C183.377,85.84,185.52,88.035,188.324,88.009 M121.025,50.856c0.439-5.877-0.013-11.643-1.535-17.484
		c-4.789,4.974-5.073,16.504-0.582,18.232c-0.352-3.27-0.723-6.505-1.088-9.869h2.25C120.393,44.797,120.711,47.827,121.025,50.856
		 M132.354,51.277c4.414-3.786,3.709-14.911-0.938-18.069c-1.333,5.594-1.729,11.212-1.3,16.926c0.293-2.994,0.577-5.98,0.883-9.129
		c0.853,0.119,1.506,0.231,2.327,0.361C133.002,44.652,132.693,47.827,132.354,51.277 M61.961,101.819
		c-3.26-1.196-6.225-2.271-9.301-3.39c0.336-0.861,0.563-1.446,0.878-2.246c2.194,0.774,4.255,1.488,6.311,2.194
		c-3.381-3.399-10.295-5.146-13.384-3.588C49.408,99.392,56.459,104.159,61.961,101.819 M66.289,75.266
		c0.98-3.924-1.363-11.788-4.324-14.396c-0.111,0.095-0.279,0.172-0.34,0.275c-2.188,4.432-1.768,8.82,0.211,13.156
		c0.164,0.353,0.754,0.525,1.511,0.989c-0.263-2.59-0.474-4.706-0.706-6.917c0.641-0.078,1.105-0.13,1.803-0.198
		c0.164,1.385,0.361,2.633,0.461,3.906C65.115,75,65.102,75,66.289,75.266 M68.742,53.333c0.559,6.015,2.49,11.22,6.293,15.712
		c-1.01-2.797-2.018-5.593-3.066-8.519c0.848-0.25,1.436-0.43,2.094-0.611c0.908,2.289,1.747,4.44,2.59,6.582
		C77.514,60.819,74.387,56.113,68.742,53.333 M185.674,74.835c1.602-2.073,0.568-4.818,1.721-7.133
		c0.551,0.077,1.049,0.146,1.729,0.241c-0.181,2.298-0.353,4.457-0.522,6.763c3.185-1.608,3.631-10.429,0.834-14.24
		C186.121,64.787,185.184,69.595,185.674,74.835 M83.566,61.534c0.844,6.358,1.661,12.554,2.482,18.766c0.061,0,0.125,0,0.186,0.009
		V69.793h2.168v9.043C91.758,74.5,89.637,67.418,83.566,61.534 M102.174,114.768c1.381,1.851,2.658,3.571,3.949,5.317
		c0.146-0.154,0.275-0.292,0.421-0.43c-1.544-4.104-7.481-9.241-10.897-9.456c0.908,5.128,5.086,11.254,9.418,11.168
		c-1.747-1.704-3.33-3.227-4.978-4.81C100.611,116.111,101.051,115.732,102.174,114.768 M193.58,97.526
		c1.594-0.577,3.193-1.146,4.982-1.799c0.359,0.998,0.672,1.772,1.023,2.728c-3.039,1.118-5.811,2.134-8.58,3.158
		c5.043,1.195,12.092-2.444,14.273-7.22C200.902,93.783,197.031,94.763,193.58,97.526 M147.453,121.471
		c4.746-0.344,8.846-7.873,8.881-11.581c-4.979,1.737-8.234,5.257-10.623,9.773c1.579-1.479,3.154-2.968,4.975-4.681
		c0.642,0.594,1.127,1.042,1.823,1.687C150.62,118.459,149.07,119.931,147.453,121.471 M110.024,52.146
		c-2.296,3.89-1.807,11.556,0.994,14.18c-0.435-2.633-0.843-5.128-1.261-7.727c0.813-0.12,1.42-0.224,2.151-0.353
		c0.478,2.624,0.915,5.076,1.407,7.805C115.145,62.015,113.438,55.167,110.024,52.146 M138.109,65.431
		c0.447-2.624,0.857-5.085,1.289-7.666c0.904,0.137,1.498,0.232,2.269,0.344c-0.409,2.633-0.792,5.06-1.2,7.667
		c2.689-2.487,3.098-10.988,0.684-13.939C137.92,54.736,136.229,61.964,138.109,65.431 M162.33,76.695
		c0.182-0.069,0.543-0.121,0.543-0.207c0.205-2.332,0.377-4.646,0.549-7.073h1.895c0.086,1.722,0.172,3.391,0.26,5.06
		c0.172,0.018,0.344,0.018,0.531,0.026c0.604-4.312,1.203-8.622,1.867-13.38C162.752,66.576,160.299,72.297,162.33,76.695
		 M102.612,48.653c3.407-1.644,5.076-9.413,3.271-13.164c-2.85,1.437-6.601,9.412-5.168,11.408c0.775-1.9,1.523-3.725,2.314-5.67
		c0.762,0.336,1.321,0.594,1.988,0.904C104.238,44.256,103.494,46.252,102.612,48.653 M76.851,47.835
		c1.733,3.364,8.798,7.099,12.353,6.351c-1.683-1.79-4.414-1.438-6.501-2.736c0.22-0.654,0.431-1.291,0.658-1.988
		c2.237,0.594,4.307,1.145,6.38,1.687c0.034-0.146,0.069-0.317,0.107-0.464C85.911,48.36,81.566,47.905,76.851,47.835
		 M150.418,46.141c0.744-3.744-3.068-10.11-5.335-10.997c-1.229,4.087-0.021,11.831,3.353,12.769
		c-0.836-2.193-1.602-4.216-2.414-6.367c0.801-0.266,1.42-0.49,2.15-0.73C148.973,42.708,149.695,44.419,150.418,46.141
		 M36.914,106.344c4.341,1.153,8.549,2.28,12.756,3.399c0.035-0.086,0.073-0.198,0.116-0.302c-1.669-0.843-3.334-1.694-5.18-2.649
		c0.469-0.74,0.848-1.334,1.308-2.04c1.579,0.844,3.029,1.618,4.802,2.564C48.482,103.187,41.918,102.593,36.914,106.344
		 M157.229,95.013c-2.883,1.093-7.805,6.479-8.055,8.793c0.146,0.129,0.293,0.293,0.439,0.439c0.977-1.368,1.962-2.736,3.023-4.225
		c0.883,0.834,1.354,1.29,1.975,1.875c-1.645,1.558-3.146,3.012-4.779,4.569C153.848,106.095,157.934,99.565,157.229,95.013
		 M168.715,51.277c-1.988,0.568-3.76,1.05-5.516,1.566c-0.723,0.197-1.377,0.473-0.637,1.479c4.609-0.86,8.646-2.667,11.789-6.789
		c-4.75-0.103-8.916,0.534-12.734,2.677c0.033,0.146,0.076,0.31,0.102,0.447c2.082-0.56,4.148-1.127,6.281-1.729
		C168.275,49.806,168.447,50.409,168.715,51.277 M49.352,85.54v-2.091c1.971-0.146,3.863-0.284,5.907-0.447
		c-2.216-2.143-9.314-1.429-10.716,1.222c3.501,2.435,9.084,3.484,11.594,1.884C53.887,84.662,51.623,85.918,49.352,85.54
		 M207.451,83.887c-3.158-2.685-7.822-3.175-10.463-1.238c1.971,0.129,3.795,0.258,5.723,0.396
		c-0.053,0.921-0.086,1.574-0.121,2.263c-1.273,0-2.34,0.026-3.408-0.017c-2.373-0.052-2.373-0.069-2.822,0.98
		C200.422,87.26,203.795,85.643,207.451,83.887 M54.648,72.96c0.886,0.791,1.557,1.488,2.33,2.064
		c0.677,0.517,1.441,0.896,2.178,1.334c0.094-0.181,0.197-0.361,0.302-0.533c-2.289-2.65-5.095-4.509-8.57-5.567
		c0.107,4.113,2.271,7.383,5.593,8.604c0.159-0.25,0.327-0.499,0.562-0.826c-1.298-1.119-2.541-2.194-3.9-3.364
		C53.68,74.061,54.093,73.588,54.648,72.96 M93.328,42.131c0.748,1.565,1.433,3.011,2.264,4.783c0.963-2.71-2.143-7.623-5.404-9.104
		c-0.49,3.648,0.418,6.918,1.742,10.119c0.28-0.043,0.564-0.078,0.852-0.12c0.293-1.722-1.199-3.244-1.135-5.06
		C92.158,42.553,92.688,42.372,93.328,42.131 M155.559,46.39c0.508-1.075,0.844-1.815,1.188-2.521
		c0.379-0.775,0.772-1.541,1.194-2.358c0.767,0.396,1.224,0.646,1.8,0.938c-0.283,0.877-0.568,1.678-0.791,2.512
		c-0.207,0.783-0.361,1.584-0.533,2.375c2.149-1.601,3.201-7.503,2.192-9.817C157.605,39.094,154.801,43.584,155.559,46.39
		 M198.709,74.293c-0.834,0.801-1.463,1.454-2.15,2.039c-1.455,1.239-1.473,1.23-1.041,2.031c3.191-1.196,5.688-5.292,5.051-8.277
		c-3.52,0.98-7.393,3.812-7.926,6.187c1.688-1.402,3.08-2.547,4.553-3.743C197.729,73.15,198.133,73.631,198.709,74.293
		 M121.533,79.809c-1.652,2.615-2.255,7.374-1.262,10.971c0.096-2.005,0.174-3.579,0.254-5.344c0.724,0.077,1.258,0.129,1.881,0.198
		v6.014C123.989,87.579,123.543,83.681,121.533,79.809 M214.336,106.164c-2.488-1.66-5.018-2.633-7.977-2.082
		c0.49,1.076,0.877,1.928,1.264,2.762c-0.902,0.577-1.564,0.999-2.229,1.403c0.053,0.086,0.104,0.163,0.146,0.249
		C208.475,107.712,211.4,106.938,214.336,106.164 M129.32,91.288v-5.877h1.875c0.082,1.497,0.168,2.874,0.24,4.25
		c0.926-3.476,0.303-6.754-1.18-10.016C127.979,82.649,127.711,88.929,129.32,91.288 M77.401,81.512
		c-1.871,2.892-1.944,7.091-0.134,9.241c-0.09-1.601-0.163-2.969-0.244-4.508h2.111c0.164,2.185,0.318,4.225,0.474,6.28
		c0.138-0.017,0.271-0.051,0.413-0.077C80.817,88.525,79.592,85.058,77.401,81.512 M174.496,81.435
		c-2.451,2.908-3.588,8.415-2.193,10.937c0.104-2.28,0.207-4.346,0.309-6.437h2.152v4.268
		C176.467,87.235,176.002,84.386,174.496,81.435 M83.434,77.606c-0.048-1.463-5.31-6.117-7.018-6.091
		C78.671,73.476,80.925,75.447,83.434,77.606"/>
	<path display="inline" fill="green" d="M136.9,151.018c3.425-2.176,6.711-4.146,9.895-6.289
		c6.803-4.518,12.291-10.4,17.145-16.939c1.93-2.6,3.992-5.121,6.203-7.477c2.451-2.599,5.902-3.072,9.207-3.614
		c7.633-1.273,15.289-2.47,22.947-3.57c5.887-0.844,11.547,0.068,16.865,2.821c0.465,0.241,0.869,0.568,1.42,0.938
		c-1.73,2.1-4.07,2.848-6.273,3.785c-3.492,1.472-7.062,2.108-10.703,0.508c-0.979-0.447-1.979-0.955-2.762-1.669
		c-2.229-2.021-4.775-2.899-7.762-2.547c-1.928,0.224-3.855,0.431-5.807,0.921c6.219,2.271,12.457,4.517,18.68,6.78l0.033,0.696
		c-1.041,0.594-2.057,1.273-3.148,1.73c-4.646,1.943-9.432,2.822-14.154,0.56c-1.67-0.791-3.494-2.218-4.232-3.819
		c-2.633-5.714-7.613-5.076-11.254-1.523c-3.15,3.072-5.816,6.695-8.449,10.24c-4.146,5.603-9.086,10.334-14.68,14.404
		c-2.807,2.057-5.648,4.024-8.621,6.125c1.257,3.435,0.383,6.807-0.686,10.205c-0.312,1.016-0.236,2.323,0.121,3.329
		c1.807,5.302,2.331,10.695,1.924,16.228c-0.019,0.261,0.084,0.519,0.153,0.904c4.165,0.36,8.14,1.401,11.702,3.545
		c3.553,2.125,6.572,4.938,8.725,7.94c4.715,1.008,5.471,0.912,7.709,1.791c0.207,0.11,0.811,0.31,1.857,0.858
		c5.404,2.832,8.279,3.193,12.855,2.572c0.359-0.043,0.73-0.043,1.152-0.076c-1.963,3.209-5.508,4.578-9.688,3.492
		c-1.859-0.482-3.699-1.271-5.326-2.279c-2.916-1.78-5.91-2.644-9.283-1.78c-0.207,0.053-0.43,0-0.662,0
		c-5.688-8.373-13.053-13.554-23.447-12.365c0-3.319,0.203-6.504-0.056-9.67c-0.271-3.44-0.801-6.886-1.536-10.267
		c-0.562-2.614-0.865-5.084,0.246-7.623C138.514,156.912,138.023,153.943,136.9,151.018 M215.943,117.393
		c-1.875-1.395-7.348-2.427-9.73-1.851c0.67,0.198,1.367,0.404,2.211,0.646c-0.139,0.86-0.268,1.583-0.43,2.495
		c-1.928-0.344-3.719-0.653-5.748-1.016C204.982,120.903,212.105,120.593,215.943,117.393 M201.281,125.172
		c-3.596-1.326-6.848-2.522-10.084-3.718c-0.051,0.13-0.104,0.25-0.164,0.388c1.145,0.671,2.281,1.351,3.605,2.125
		c-0.412,0.74-0.738,1.368-1.146,2.1c-2.506-1.384-4.826-2.667-7.416-4.085C187.721,126.418,195.318,128.338,201.281,125.172"/>
	<path display="inline" fill="green" d="M46.611,124.637c6.195-2.237,12.381-4.457,18.537-6.677
		c-3.631-1.944-10.084-1.445-13.177,1.136c-3.248,2.702-6.909,3.52-10.954,2.461c-3.26-0.852-6.307-2.194-9.258-4.475
		c0.801-0.499,1.334-0.895,1.932-1.17c4.975-2.314,10.158-3.339,15.647-2.538c8.027,1.179,16.056,2.435,24.114,3.468
		c6.13,0.774,10.389,4.13,13.74,9.068c6.982,10.309,16.072,18.242,27.078,23.99c0.24,0.129,0.481,0.258,0.709,0.395
		c0.134,0.086,0.241,0.217,0.456,0.389c-0.267,1.223-0.735,2.469-0.761,3.732c-0.03,1.602,0.013,3.297,0.559,4.76
		c0.934,2.547,1.364,4.965,0.495,7.605c-2.052,6.299-1.815,12.734-1.097,19.205c0.029,0.309,0,0.637,0,1.152
		c-4.785-0.604-9.284,0.104-13.488,2.469c-4.168,2.342-7.395,5.629-9.885,9.715c-0.663-0.062-1.252-0.062-1.83-0.172
		c-2.883-0.551-5.445,0.199-7.881,1.721c-2.366,1.488-4.9,2.393-7.735,2.736c-3.36,0.379-5.454-1.385-7.825-3.812
		c1.471,0.139,2.564,0.242,3.652,0.346c3.562,0.311,6.836-0.316,9.891-2.355c2.865-1.92,6.187-2.521,9.771-2.496
		c5.11-6.822,11.762-11.193,20.595-11.812c0-2.108-0.186-4.132,0.047-6.095c0.391-3.373,0.929-6.754,1.647-10.073
		c0.399-1.843,0.696-3.537-0.026-5.404c-1.135-2.926-1.553-5.971-0.494-8.976c-3.055-2.168-5.98-4.311-8.957-6.385
		c-6.867-4.767-12.287-10.91-17.097-17.688c-1.708-2.407-3.79-4.595-5.933-6.65c-1.037-1.007-2.53-1.669-3.928-2.178
		c-2.677-1.006-5.068-0.197-6.328,2.375c-2.707,5.536-7.379,6.969-12.873,6.231c-2.74-0.379-5.355-1.592-8.019-2.479
		c-0.478-0.163-0.86-0.567-1.296-0.868C46.629,125.068,46.624,124.861,46.611,124.637 M61.918,121.755
		c-0.516,0-1.08-0.13-1.526,0.017c-2.616,0.878-5.202,1.815-7.787,2.771c-0.46,0.164-0.874,0.456-1.425,0.774
		c5.951,2.986,13.526,1.291,15.161-3.441c-2.568,1.437-4.974,2.762-7.442,4.138c-0.439-0.842-0.732-1.375-1.119-2.106
		c1.506-0.766,2.831-1.463,4.147-2.159l-0.052-0.086L61.918,121.755z M47.644,115.551c-3.425-0.783-9.357,0.336-11.607,1.858
		c4.857,3.622,12.124,3.391,14.241,0.138c-1.997,0.361-3.89,0.697-5.938,1.059c-0.104-0.895-0.186-1.609-0.268-2.366
		C45.389,115.99,46.517,115.766,47.644,115.551"/>
	<path display="inline" fill="green" d="M137.67,203.186c0.475-3.209,0.926-6.307,1.373-9.359c6.5-1.076,14.33,3.312,17.084,9.574
		c-3.824,4.555-4.586,9.682-2.096,15.445c-0.973,0.336-1.854,0.621-2.693,0.902c-2.576-3.699-2.35-9.051,0.577-15.891
		c-1.103-3.451-5.993-6.703-9.97-6.496c-0.252,1.385-0.51,2.805-0.812,4.43c5.749,4.785,7.775,11.109,7.268,18.621
		c-1.131,0.215-2.105,0.422-3.377,0.68C145.711,213.777,144.059,207.549,137.67,203.186"/>
	<path display="inline" fill="green" d="M108.184,220.215c-1.166-0.174-2.139-0.328-3.191-0.482
		c-0.406-3.59-0.096-6.926,1.092-10.193c1.174-3.254,3.055-5.955,5.842-8.143c-0.283-1.539-0.559-3.012-0.821-4.414
		c-3.837-0.379-8.247,2.438-10.028,6.309c2.904,4.93,3.527,10.076,1.17,15.703c-0.98-0.275-1.875-0.51-2.951-0.791
		c2.432-5.646,1.683-10.723-2.198-15.195c1.722-5.766,10.102-10.574,16.767-9.566c0.467,2.969,0.945,6.006,1.427,9.109
		c-2.778,2.041-4.907,4.512-6.13,7.693C107.969,213.383,107.826,216.67,108.184,220.215"/>
	<path display="inline" fill="green" d="M137.271,207.857c-5.097,3.408-7.854,8.189-8.013,14.457h-2.231
		c-0.344-5.715,0.865-10.791,5.312-14.672c-3.291-3.055-7.941-3.115-11.366-0.162c4.272,3.992,5.544,9.061,5.12,14.834
		c-0.719-0.035-1.347-0.078-2.131-0.129c-0.197-6.213-2.778-11.104-7.872-14.568C120.875,200.777,132.025,200.174,137.271,207.857"
		/>
	<path display="inline" fill="green" d="M177.826,207.48c-2.15,1.84-4.121,2.982-6.686,1.893c-0.947-0.396-1.9-0.775-2.807-1.266
		c-2.105-1.104-4.242-1.213-6.117,0.258c-1.979,1.559-2.633,3.752-1.928,6.264c0.141,0.525,0.258,1.041,0.422,1.748
		c-0.879,0.369-1.736,0.723-2.582,1.074c-2.105-3.414-1.607-7.682,1.152-10.789c2.537-2.848,5.988-3.416,9.75-1.764
		c2.014,0.877,4.088,1.607,6.158,2.32C175.881,207.453,176.682,207.385,177.826,207.48"/>
	<path display="inline" fill="green" d="M93.186,216.316c-0.176-1.918,0.005-4.664-0.615-6.418
		c-0.998-2.84-3.854-3.865-6.672-2.771c-1.007,0.387-1.953,0.93-2.955,1.342c-2.982,1.205-4.381,0.93-7.099-1.299
		c1.982-0.49,3.927-0.869,5.804-1.471c1.312-0.439,2.504-1.256,3.807-1.688c4.168-1.385,8.145,0.318,10.002,4.285
		c1.309,2.797,1.278,5.963-0.124,8.847"/>
	<path display="inline" fill="green" d="M139.859,210.611c1.787,3.365,2.404,6.84,1.877,10.66
		c-0.844,0.139-1.618,0.285-2.371,0.404c-0.297-2.271-0.568-4.412-0.887-6.9c-2.812,2.049-3.613,4.689-4.422,7.453h-2.879
		C131.195,217.539,135.619,211.541,139.859,210.611"/>
	<path display="inline" fill="green" d="M113.51,210.242c4.775,1.867,8.375,6.926,8.488,11.934c-0.9-0.078-1.781-0.154-2.831-0.24
		c-0.735-2.719-1.583-5.412-4.345-7.562c-0.366,2.33-0.688,4.396-1.042,6.685c-0.589-0.052-1.342-0.103-2.241-0.197
		C111.031,217.039,111.655,213.58,113.51,210.242"/>
</g>
<g id="Layer_3">
	<g>
		<path fill="green" d="M64.891,100.161c-1.266-2.747-2.525-5.494-3.543-7.7c-2.2-1.325-3.883-2.356-5.73-3.459
			c-5.782,1.019-11.104-0.486-15.888-4.25c2.054-3.195,5.898-4.637,12.134-4.702c-1.229-1.834-2.652-3.595-3.627-5.557
			c-1.039-2.036-1.26-4.324-0.954-6.82c3.831,0.563,7.035,2.208,10.397,4.625c-1.723-5.697-0.832-10.501,2.989-15.029
			c5.285,5.644,7.55,12.048,6.638,19.578c2.882,2.654,3.987,5.772,2.949,9.565c-0.15,0.502,0.062,1.192,0.339,1.688
			c1.548,2.887,3.17,5.737,4.774,8.604c0.188-0.085,0.393-0.19,0.595-0.29c-0.299-0.677-0.491-1.438-0.916-2.023
			c-3.776-5.005-3.074-11.432-0.148-16.005c0.148-0.222,0.32-0.424,0.765-0.964c1.168,1.631,2.407,3.032,3.289,4.646
			c2.737,4.953,3.289,9.972,0.128,15.068c-1.399,2.241-0.594,4.307,2.289,6.336c1.466-7.447,1.604-14.88,1.126-22.424
			c-10.192-7.571-17.562-16.841-17.45-30.778c4.424,1.478,7.871,3.831,10.426,7.487c2.65,3.797,2.746,7.976,1.954,12.569
			c1.313,1.031,2.713,2.162,4.113,3.29c0.127-0.077,0.277-0.171,0.405-0.246c-0.447-2.842-0.872-5.696-1.338-8.538
			c-0.467-2.8-0.975-5.581-1.513-8.729c4.335,2.422,6.934,5.963,9.331,9.693c2.555,3.979,3.023,8.243,1.639,12.888
			c1.068,0.564,2.093,1.092,3.398,1.763c2.628-5.644,3.362-11.216,1.247-17.131c-3.093-0.824-5.281-2.685-6.445-5.793
			c-7.286-0.635-12.895-4.051-17.032-10.531c5.93-1.736,11.316-0.763,16.991,1.401c-1.699-4.578-2.471-9.004-0.901-13.829
			c4.688,2.165,7.935,5.41,9.521,10.34c1.084-5.694,4.299-9.735,8.964-12.821c2.123,4.836,2.97,13.236-2.429,18.971
			c1.475,3.078,1.178,6.131-0.636,9.102c3.903,7.701,3.756,15.676,1.594,23.916c1.122,0.809,2.215,1.559,3.562,2.517
			c1.513-3.842,4.897-6.779,3.82-11.306c-0.212-0.947-0.715-1.921-1.317-2.697c-3.436-4.326-5.666-9.077-5.443-14.738
			c0.127-3.29,1.009-6.378,2.92-9.124c5.365,4.041,8.971,11.282,6.271,18.814c-0.716,2.004-1.396,3.987-0.588,6.164
			c1.538-1.771,3.361-12.986,3.045-18.741c-3.572-3.492-5.433-7.807-4.675-12.952c0.71-4.954,3.093-9.026,6.989-12.482
			c1.429,2.885,2.12,5.812,2.595,8.782c1.592,9.999,0.552,19.85-1.452,29.677c-1.516,7.494-3.709,14.781-6.587,21.878
			c-0.22,0.54-0.392,1.091-0.542,1.506c1.783,2.301,3.448,4.465,5.124,6.627c0.108-0.03,0.234-0.05,0.354-0.062
			c-0.246-1.051-0.341-2.14-0.723-3.115c-2.42-6.099-1.443-11.893,1.545-17.503c0.203-0.36,0.48-0.678,0.83-1.179
			c1.941,2.559,2.754,5.37,3.374,8.264c0.869,4.157-0.225,7.977-1.827,11.697c-1.418,3.288-1.532,6.387-0.245,9.854
			c1.488,3.974,2.273,8.208,3.376,12.398c0.201-1.1,0.337-2.282,0.635-3.407c0.913-3.55,1.793-7.113,2.887-10.624
			c0.696-2.237,0.626-4.34-0.168-6.494c-0.885-2.428-1.962-4.836-2.561-7.348c-1.219-5.229,0.254-10.015,3.13-14.962
			c0.88,1.606,1.742,2.85,2.259,4.219c1.932,5.017,2.429,10.073,0.33,15.197c-0.35,0.861-0.401,1.836-0.247,2.873
			c1.659-2.193,3.303-4.398,4.937-6.565c-1.529-4.296-3.257-8.503-4.564-12.84c-3.283-10.924-5.682-22.019-5.342-33.539
			c0.146-4.72,0.614-9.397,2.227-13.873c0.231-0.657,0.528-1.284,0.807-1.932c8.366,5.157,9.743,17.893,2.777,25.637
			c-0.009,6.287,1.165,12.513,3.126,18.603c0.861-1.665,0.579-3.321-0.09-4.931c-1.319-3.248-1.762-6.588-1.043-10.037
			c0.87-4.136,3.393-7.251,6.384-10.278c1.806,1.953,2.484,4.204,3.006,6.514c1.357,6.089-0.256,11.606-4,16.313
			c-2.812,3.554-3.033,6.83-0.805,10.552c0.911,1.517,1.713,3.096,2.673,4.825c1.197-0.881,2.278-1.643,3.417-2.481
			c-2.115-8.188-2.552-16.227,1.27-24.063c-1.875-2.908-2.142-5.959-0.745-9.188c-5.428-5.61-4.588-12.187-3.076-19.227
			c5.021,3.151,8.299,7.182,9.397,12.654c1.244-1.954,2.273-4.138,3.829-5.837c1.52-1.664,3.566-2.839,5.684-4.462
			c1.612,5.047,1.178,9.45-0.616,14.161c5.594-1.985,11.003-3.056,17.005-1.286c-3.934,6.577-9.546,9.873-16.852,10.681
			c-1.116,2.991-3.246,4.919-6.386,5.727c-2.229,5.917-1.238,11.499,1.402,17.168c1.13-0.57,2.174-1.089,3.254-1.632
			c-2.831-10.552,3.468-16.776,10.185-22.802c0.179,0.055,0.369,0.12,0.56,0.181c-0.838,5.641-1.688,11.294-2.515,16.949
			c0.137,0.116,0.286,0.225,0.424,0.317c1.305-1.037,2.618-2.054,3.917-3.085c-0.809-5.003-0.725-9.654,2.515-13.765
			c2.512-3.173,5.85-4.974,9.501-6.523c1.249,8.938-2.779,20.513-16.579,30.903c-0.9,4.54-0.076,18.677,1.305,22.402
			c2.5-1.24,3.49-3.916,2.101-6.131c-3.659-5.78-2.672-11.306,0.826-16.714c0.657-1.009,1.435-1.942,2.312-3.111
			c2.442,3.023,3.278,6.236,3.385,9.72c0.115,3.506-1.816,6.299-3.457,9.193c0.211,0.093,0.412,0.187,0.622,0.294
			c1.773-3.118,3.537-6.203,5.264-9.245c-1.328-4.076-0.796-7.573,2.543-10.473c-0.943-7.462,0.975-14.061,6.43-19.79
			c3.832,4.436,4.975,9.131,3.5,14.542c1.738-0.919,3.235-1.823,4.835-2.523c1.604-0.711,3.301-1.221,5.229-1.911
			c0.63,5.167-0.9,9.166-4.69,12.868c5.253-0.647,9.286,0.837,12.749,4.528c-4.899,4.03-10.222,5.547-16.012,4.611
			c-1.889,1.137-3.616,2.197-5.673,3.428c-0.978,2.196-2.104,4.742-3.248,7.297c3.224-2.877,6.29-5.812,10.554-6.945
			c4.135-1.106,8.271-1.021,12.554-0.205c-1.578,5.081-4.968,8.212-9.244,10.629c-3.248,1.826-6.586,2.163-10.162,1.24
			c-3.798-0.987-6.277,0.332-7.978,3.915c-0.601,1.293-1.314,2.556-2.204,4.264c2.613-0.106,4.816-0.042,6.97-0.338
			c2.82-0.394,5.622-0.991,8.4-1.646c1.641-0.395,2.886-1.454,3.505-3.095c2.218-5.825,7.823-7.075,13.017-5.252
			c2.654,0.923,5.079,2.312,6.874,4.986c-14.16,5.12-28.392,8.579-43.592,7.422c3.87-7.678,7.658-15.155,11.498-22.771
			c-1.306-0.646-2.182-1.082-3.216-1.601c-3.542,7.276-8.258,13.564-13.658,19.366c-0.181,0.171-0.423,0.298-0.985,0.702
			c-2.432-9.199-2.994-18.329-2.715-27.58c-0.174-0.059-0.327-0.125-0.5-0.199c-0.286,0.538-0.804,1.083-0.804,1.643
			c0.009,5.136,0.094,10.265,0.179,15.425c0.078,5.117,0.656,10.307-1.137,15.282c-3.838,10.691-11.146,17.54-22.324,19.989
			c-0.531,0.117-1.08,0.117-1.61,0.129c-0.479,0.012-0.955-0.043-1.73-0.073c0-1.478,0.042-2.866,0-4.244
			c-0.297-7.953,0.394-15.793,2.703-23.46c2.515-8.302,7.16-15.102,14.11-20.287c4.928-3.683,10.021-7.16,14.952-10.851
			c1.789-1.337,3.339-2.982,4.813-4.752c-5.801,5.167-12.607,8.645-19.396,12.59c-3.854-6.799-4.94-13.629-3.005-21.032
			c-0.637-0.256-1.203-0.489-1.979-0.808c-3.289,7.746-2.315,15.392-0.03,23.006c-2.348,1.92-4.583,3.767-6.97,5.729
			c-3.545-5.54-6.713-11.158-8.677-17.396c-1.942-6.193-3.068-12.503-3.1-19.145c-0.496-0.105-0.917-0.178-1.622-0.303
			c0.269,7.06,1.539,13.742,3.735,20.189c2.194,6.42,4.783,12.718,7.274,19.241c-7.859,8.632-10.108,19.705-11.497,31.149h-6.066
			c-1.346-11.401-3.891-22.375-12.11-31.266c5.789-12.239,10.203-24.883,10.741-38.734h-1.661
			c0.146,13.362-3.873,25.36-11.289,36.451c-2.344-1.926-4.581-3.754-6.904-5.661c2.228-7.597,2.949-15.177-0.317-22.899
			c-0.688,0.266-1.313,0.509-2.046,0.806c2.068,7.224,1.137,14.001-2.671,20.8c-2.174-1.169-4.245-2.25-6.441-3.438
			c-0.222,0.382-0.445,0.764-0.572,0.954c3.691,2.93,7.266,5.684,10.775,8.527c5.326,4.286,8.401,10.086,10.616,16.388
			c3.17,8.984,3.584,18.316,3.227,27.733c0,0.202-0.097,0.403-0.182,0.713c-3.128,0.22-6.025-0.53-8.761-1.856
			c-11.484-5.561-17.881-14.511-17.966-27.533c-0.042-7.259,0.009-14.522,0-21.785c0-0.733,0.188-1.75-1.367-1.646
			c0.393,9.448-0.118,18.849-2.356,28.457c-6.27-5.981-10.967-12.694-14.858-20.152c-0.977,0.457-1.887,0.882-3.015,1.423
			c3.396,7.751,7.183,15.229,11.828,22.78c-16.004,1.262-30.661-3.14-45.329-7.464c-0.043-0.205-0.096-0.414-0.141-0.626
			c1.612-0.894,3.165-1.962,4.86-2.662c3.203-1.295,6.46-2.545,10.034-1.708c3.136,0.732,5.13,2.691,6.594,5.507
			c0.596,1.165,1.68,2.477,2.843,2.879c5.027,1.784,10.32,2.047,16.059,2.027c-1.424-2.532-2.121-5.152-4.073-6.966
			c-1.885-1.781-4.265-1.824-6.7-1.158c-3.315,0.902-6.366,0.267-9.378-1.325c-3.469-1.836-6.438-4.169-8.402-7.614
			c-0.444-0.788-0.784-1.622-1.251-2.624c8.273-1.367,15.623-0.486,21.518,5.846c0.551,0.584,1.306,0.975,1.961,1.443
			c-0.056,0.02-0.102,0.044-0.142,0.087C64.806,100.205,64.852,100.181,64.891,100.161 M203.723,104.943
			c-1.146-0.318-1.88,0.169-2.366,1.176h-0.075c-0.072,0.064-0.02,0.015,0.041-0.041c0.788-0.391,1.58-0.784,2.367-1.189
			c0.057-0.102,0.108-0.208,0.033-0.073C203.712,104.687,203.723,104.816,203.723,104.943 M101.524,104.236l0.084-0.057
			l-0.107,0.045c-0.104-0.437-0.115-0.921-0.327-1.294c-1.74-2.928-4.12-5.25-6.886-7.202c-0.265-0.173-0.614-0.258-0.977-0.402
			c0.025,5.704,3.82,11.092,7.904,11.528c-1.823-1.76-3.374-3.225-4.996-4.784c0.531-0.466,0.988-0.89,1.551-1.391
			C99.102,101.94,100.3,103.078,101.524,104.236 M175.458,68.859c3.215-4.602,5.239-9.617,5.437-15.366
			c-5.067,2.112-9.063,8.189-7.527,12.667c0.806-2.143,1.58-4.191,2.416-6.43c0.801,0.307,1.453,0.559,2.198,0.849
			c-0.328,0.932-0.647,1.687-0.872,2.463c-0.55,1.928-1.058,3.88-1.587,5.808l-0.044-0.083L175.458,68.859z M88.583,85.059
			c-0.158,0.506-0.266,0.654-0.252,0.804c0.154,6.535,0,13.108,0.562,19.615c0.784,8.927,4.962,16.221,12.11,21.697
			c2.5,1.909,5.388,3.065,9.059,3.479c-0.391-1.347-0.542-2.473-1.03-3.393c-0.911-1.764-2.674-2.366-4.433-3.022
			c-1.997-0.746-4.103-1.466-5.823-2.655c-3.714-2.608-5.566-6.532-6.735-10.796c-0.296-1.089-0.286-2.269-0.436-3.574
			c8.933,2.005,14.596,7.244,17.493,15.632c0.21-0.308,0.263-0.4,0.251-0.508c-0.251-2.312-0.521-4.614-0.784-6.936
			c-0.39-3.278-2.181-5.187-5.419-5.738c-5.154-0.882-9.056-3.34-10.901-8.505c-1.072-3.002-1.762-6.069-1.345-9.875
			c2.172,1.271,4.155,2.129,5.789,3.447c3.701,2.948,6.296,6.797,8.25,11.081c0.333,0.723,0.838,1.371,1.264,2.048
			c0.157-0.108,0.319-0.223,0.466-0.351C103.941,97.489,96.242,91.461,88.583,85.059 M139.956,122.264
			c0.204,0.083,0.407,0.182,0.618,0.253c2.663-8.456,8.429-13.385,16.905-15.408c0.087,0.272,0.213,0.473,0.201,0.667
			c-0.201,5.641-4.146,14.158-11.336,16.089c-1.494,0.416-3.015,0.953-4.328,1.729c-1.77,1.018-2.46,2.738-2.28,4.729
			c0.22,0.128,0.317,0.226,0.414,0.212c0.327-0.01,0.657-0.01,0.964-0.084c4.264-1.104,8.008-3.053,11.009-6.417
			c5.604-6.246,8.437-13.522,8.594-21.866c0.104-5.455,0-10.929-0.026-16.397c0-0.17-0.147-0.342-0.337-0.778
			c-7.623,6.311-15.158,12.42-17.619,22.547c0.629-0.476,1.103-1.069,1.425-1.75c2.1-4.451,4.709-8.537,8.614-11.634
			c1.589-1.258,3.371-2.195,5.886-2.788c-0.34,2.715-0.415,5.045-0.967,7.255c-0.976,3.987-2.648,7.644-6.715,9.416
			c-1.675,0.721-3.471,1.167-5.249,1.583c-2.162,0.507-3.989,1.644-4.505,3.731C140.51,116.25,140.35,119.297,139.956,122.264
			 M62.248,78.544c-2.757,0.044-5.038,2.41-4.975,5.167c0.075,2.695,2.494,4.938,5.24,4.889c2.716-0.042,4.893-2.322,4.857-5.059
			C67.35,80.786,65.019,78.527,62.248,78.544 M96.305,59.985c2.724-0.009,4.836-2.229,4.812-5.048
			c-0.021-2.757-2.384-5.068-5.123-5.037c-2.692,0.042-4.816,2.287-4.781,5.121C91.246,57.846,93.45,59.994,96.305,59.985
			 M157.319,54.726c-0.011-2.875-2.174-5.135-4.943-5.155c-2.693-0.011-4.961,2.248-4.94,4.932c0.021,2.809,2.304,5.11,5.016,5.08
			C155.087,59.539,157.331,57.302,157.319,54.726 M186.721,88.24c2.769-0.021,5.027-2.208,5.058-4.856
			c0.042-2.753-2.248-4.976-5.079-4.976c-2.644,0-4.911,2.195-4.911,4.773C181.788,86.077,183.92,88.26,186.721,88.24
			 M119.638,51.203c0.438-5.854-0.012-11.602-1.537-17.437c-4.763,4.966-5.052,16.451-0.574,18.179
			c-0.352-3.254-0.725-6.49-1.081-9.839h2.234C119.01,45.169,119.328,48.18,119.638,51.203 M130.933,51.616
			c4.404-3.764,3.69-14.857-0.931-18.007c-1.34,5.576-1.731,11.179-1.299,16.871c0.289-2.986,0.575-5.958,0.874-9.107
			c0.845,0.127,1.504,0.243,2.318,0.369C131.582,45.021,131.272,48.18,130.933,51.616 M60.755,102.007
			c-3.249-1.19-6.195-2.273-9.274-3.383c0.342-0.86,0.573-1.444,0.873-2.238c2.191,0.774,4.251,1.483,6.298,2.197
			c-3.375-3.396-10.265-5.146-13.339-3.588C48.249,99.591,55.278,104.328,60.755,102.007 M65.076,75.537
			c0.977-3.905-1.353-11.755-4.304-14.351c-0.127,0.094-0.296,0.17-0.346,0.284c-2.177,4.404-1.773,8.784,0.209,13.108
			c0.162,0.351,0.756,0.506,1.508,0.979c-0.267-2.577-0.479-4.692-0.709-6.895c0.645-0.072,1.103-0.127,1.801-0.2
			c0.17,1.377,0.362,2.628,0.458,3.9C63.904,75.267,63.892,75.267,65.076,75.537 M67.519,53.675
			c0.552,5.991,2.484,11.177,6.281,15.664c-1.017-2.797-2.017-5.577-3.063-8.499c0.847-0.252,1.429-0.431,2.086-0.607
			c0.911,2.287,1.74,4.418,2.586,6.562C76.258,61.128,73.14,56.443,67.519,53.675 M184.092,75.109
			c1.585-2.07,0.556-4.814,1.706-7.117c0.552,0.076,1.053,0.148,1.729,0.245c-0.182,2.291-0.352,4.434-0.533,6.748
			c3.186-1.615,3.628-10.406,0.841-14.201C184.534,65.087,183.591,69.881,184.092,75.109 M82.292,61.84
			c0.841,6.342,1.663,12.515,2.472,18.708c0.063,0,0.126,0,0.189,0.014V70.08h2.166v9.006C90.46,74.78,88.347,67.715,82.292,61.84
			 M100.842,114.915c1.379,1.843,2.654,3.564,3.933,5.303c0.153-0.158,0.281-0.296,0.425-0.437
			c-1.536-4.083-7.456-9.206-10.856-9.429c0.899,5.114,5.07,11.231,9.385,11.137c-1.749-1.695-3.319-3.214-4.968-4.795
			C99.283,116.25,99.731,115.868,100.842,114.915 M191.96,97.734c1.593-0.587,3.192-1.159,4.974-1.806
			c0.361,0.988,0.669,1.771,1.02,2.725c-3.035,1.114-5.781,2.123-8.549,3.14c5.028,1.199,12.049-2.427,14.222-7.192
			C199.268,94,195.397,94.976,191.96,97.734 M145.983,121.597c4.728-0.351,8.823-7.849,8.855-11.538
			c-4.963,1.728-8.223,5.227-10.597,9.735c1.583-1.477,3.149-2.96,4.964-4.667c0.637,0.591,1.114,1.038,1.814,1.685
			C149.145,118.592,147.594,120.059,145.983,121.597 M108.669,52.477c-2.287,3.892-1.791,11.526,1,14.15
			c-0.437-2.633-0.851-5.116-1.267-7.701c0.806-0.132,1.425-0.233,2.145-0.361c0.482,2.62,0.913,5.069,1.412,7.782
			C113.773,62.329,112.073,55.511,108.669,52.477 M136.671,65.732c0.444-2.619,0.857-5.078,1.281-7.646
			c0.9,0.141,1.498,0.224,2.262,0.339c-0.416,2.629-0.783,5.048-1.198,7.65c2.683-2.482,3.097-10.946,0.687-13.895
			C136.481,55.065,134.794,62.277,136.671,65.732 M160.812,76.955c0.188-0.065,0.551-0.119,0.551-0.202
			c0.202-2.32,0.373-4.635,0.551-7.052h1.879c0.082,1.717,0.169,3.381,0.251,5.045c0.172,0.013,0.349,0.013,0.529,0.034
			c0.608-4.307,1.213-8.608,1.869-13.354C161.234,66.869,158.784,72.573,160.812,76.955 M101.28,48.996
			c3.402-1.632,5.068-9.374,3.265-13.117c-2.841,1.432-6.575,9.385-5.153,11.38c0.771-1.899,1.515-3.724,2.312-5.661
			c0.754,0.347,1.312,0.6,1.97,0.898C102.899,44.627,102.161,46.609,101.28,48.996 M75.601,48.192
			c1.73,3.351,8.773,7.072,12.314,6.332c-1.676-1.792-4.402-1.433-6.479-2.727c0.211-0.657,0.424-1.293,0.653-1.985
			c2.23,0.597,4.289,1.137,6.368,1.689c0.027-0.162,0.062-0.317,0.104-0.481C84.636,48.711,80.31,48.253,75.601,48.192
			 M148.945,46.495c0.737-3.734-3.067-10.066-5.326-10.954c-1.231,4.07-0.023,11.79,3.337,12.723
			c-0.824-2.182-1.587-4.196-2.403-6.353c0.806-0.262,1.417-0.475,2.15-0.721C147.499,43.08,148.221,44.788,148.945,46.495
			 M35.786,106.515c4.33,1.146,8.525,2.267,12.728,3.383c0.033-0.085,0.063-0.192,0.104-0.285c-1.667-0.852-3.319-1.701-5.153-2.64
			c0.466-0.745,0.837-1.34,1.295-2.037c1.568,0.824,3.03,1.6,4.789,2.544C47.326,103.375,40.781,102.78,35.786,106.515
			 M155.721,95.216c-2.864,1.093-7.776,6.462-8.018,8.764c0.135,0.137,0.282,0.286,0.431,0.446c0.98-1.37,1.955-2.738,3.015-4.221
			c0.882,0.838,1.354,1.293,1.959,1.877c-1.623,1.557-3.128,2.998-4.75,4.548C152.355,106.268,156.416,99.757,155.721,95.216
			 M167.174,51.616c-1.973,0.572-3.744,1.05-5.495,1.56c-0.719,0.202-1.379,0.488-0.636,1.484c4.592-0.859,8.624-2.662,11.762-6.765
			c-4.742-0.106-8.897,0.526-12.706,2.661c0.043,0.163,0.075,0.309,0.106,0.446c2.068-0.564,4.136-1.123,6.268-1.717
			C166.738,50.155,166.908,50.758,167.174,51.616 M48.193,85.771v-2.069c1.954-0.161,3.841-0.297,5.876-0.458
			c-2.206-2.131-9.28-1.419-10.668,1.222c3.479,2.418,9.056,3.466,11.551,1.875C52.712,84.897,50.453,86.15,48.193,85.771
			 M205.793,84.125c-3.156-2.674-7.79-3.162-10.429-1.244c1.962,0.139,3.773,0.267,5.703,0.416
			c-0.051,0.902-0.092,1.558-0.111,2.249c-1.273,0-2.347,0.02-3.408-0.01c-2.369-0.063-2.369-0.076-2.82,0.966
			C198.791,87.497,202.152,85.883,205.793,84.125 M53.465,73.232c0.882,0.794,1.561,1.483,2.324,2.068
			c0.679,0.497,1.441,0.881,2.174,1.324c0.097-0.177,0.201-0.358,0.296-0.531c-2.279-2.649-5.082-4.496-8.54-5.555
			c0.111,4.093,2.27,7.361,5.583,8.581c0.148-0.245,0.316-0.499,0.549-0.831c-1.291-1.113-2.534-2.18-3.882-3.347
			C52.499,74.334,52.916,73.869,53.465,73.232 M92.029,42.496c0.745,1.572,1.421,3.012,2.259,4.773
			c0.955-2.694-2.141-7.593-5.386-9.07c-0.5,3.64,0.413,6.892,1.729,10.076c0.285-0.03,0.563-0.072,0.846-0.105
			c0.297-1.729-1.185-3.249-1.123-5.047C90.862,42.93,91.382,42.74,92.029,42.496 M154.063,46.752
			c0.513-1.074,0.84-1.806,1.191-2.516c0.369-0.774,0.761-1.537,1.187-2.344c0.752,0.391,1.217,0.638,1.781,0.921
			c-0.279,0.889-0.553,1.688-0.777,2.505c-0.211,0.784-0.357,1.581-0.539,2.363c2.146-1.591,3.192-7.479,2.196-9.779
			C156.102,39.472,153.312,43.95,154.063,46.752 M197.07,74.56c-0.826,0.795-1.452,1.462-2.143,2.035
			c-1.453,1.243-1.459,1.231-1.026,2.026c3.169-1.187,5.666-5.271,5.025-8.253c-3.496,0.977-7.36,3.797-7.898,6.166
			c1.683-1.391,3.075-2.536,4.536-3.735C196.11,73.425,196.508,73.9,197.07,74.56 M120.134,80.063
			c-1.643,2.607-2.234,7.347-1.25,10.932c0.094-1.993,0.171-3.56,0.254-5.321c0.725,0.075,1.251,0.127,1.879,0.202v5.992
			C122.596,87.804,122.15,83.923,120.134,80.063 M212.654,106.334c-2.485-1.653-5.007-2.619-7.944-2.078
			c0.487,1.08,0.867,1.927,1.26,2.756c-0.907,0.57-1.57,0.987-2.224,1.399c0.043,0.086,0.092,0.156,0.146,0.243
			C206.81,107.872,209.724,107.11,212.654,106.334 M127.9,91.504v-5.862h1.876c0.085,1.495,0.16,2.874,0.248,4.243
			c0.921-3.472,0.291-6.737-1.181-9.981C126.562,82.892,126.302,89.15,127.9,91.504 M76.15,81.759
			c-1.866,2.885-1.939,7.073-0.126,9.219c-0.094-1.606-0.167-2.97-0.251-4.5h2.108c0.158,2.171,0.31,4.212,0.478,6.269
			c0.128-0.032,0.255-0.052,0.403-0.074C79.559,88.748,78.335,85.292,76.15,81.759 M172.945,81.685
			c-2.443,2.896-3.575,8.391-2.199,10.903c0.122-2.271,0.216-4.339,0.307-6.429h2.157v4.266
			C174.905,87.466,174.449,84.625,172.945,81.685 M82.157,77.864c-0.042-1.459-5.282-6.096-6.99-6.063
			C77.426,73.751,79.664,75.712,82.157,77.864"/>
		<path fill="green" d="M135.464,151.05c3.414-2.163,6.689-4.139,9.86-6.27c6.784-4.508,12.263-10.373,17.089-16.884
			c1.928-2.6,3.977-5.113,6.191-7.458c2.437-2.59,5.879-3.062,9.175-3.605c7.614-1.262,15.24-2.47,22.876-3.552
			c5.866-0.852,11.507,0.06,16.8,2.81c0.467,0.233,0.883,0.561,1.435,0.933c-1.729,2.089-4.063,2.832-6.261,3.777
			c-3.477,1.463-7.04,2.098-10.67,0.5c-0.976-0.437-1.981-0.945-2.755-1.658c-2.219-2.026-4.762-2.896-7.731-2.545
			c-1.919,0.234-3.851,0.437-5.796,0.913c6.21,2.271,12.411,4.519,18.629,6.767l0.031,0.701c-1.052,0.58-2.046,1.259-3.142,1.716
			c-4.634,1.94-9.407,2.811-14.106,0.56c-1.663-0.806-3.486-2.216-4.231-3.804c-2.616-5.698-7.581-5.069-11.218-1.529
			c-3.128,3.065-5.791,6.674-8.409,10.216c-4.148,5.574-9.069,10.298-14.637,14.359c-2.804,2.036-5.633,3.999-8.604,6.099
			c1.25,3.415,0.396,6.789-0.677,10.175c-0.307,1.018-0.232,2.314,0.118,3.324c1.802,5.283,2.33,10.662,1.918,16.173
			c-0.011,0.26,0.085,0.525,0.158,0.904c4.149,0.362,8.118,1.392,11.666,3.524c3.544,2.125,6.559,4.917,8.697,7.924
			c4.698,0.993,5.455,0.913,7.677,1.776c0.206,0.119,0.82,0.313,1.856,0.863c5.39,2.818,8.253,3.177,12.812,2.574
			c0.36-0.055,0.73-0.055,1.16-0.096c-1.965,3.202-5.497,4.571-9.665,3.499c-1.855-0.486-3.682-1.282-5.303-2.28
			c-2.917-1.771-5.897-2.631-9.268-1.771c-0.196,0.051-0.424,0-0.661,0c-5.662-8.357-13.001-13.511-23.364-12.323
			c0-3.317,0.201-6.488-0.053-9.641c-0.273-3.448-0.808-6.871-1.541-10.239c-0.559-2.605-0.854-5.076,0.249-7.599
			C137.074,156.92,136.589,153.953,135.464,151.05 M214.262,117.535c-1.888-1.399-7.337-2.43-9.701-1.85
			c0.665,0.203,1.368,0.406,2.207,0.64c-0.15,0.87-0.269,1.589-0.423,2.492c-1.935-0.338-3.714-0.659-5.743-1.006
			C203.327,121.032,210.438,120.715,214.262,117.535 M199.65,125.285c-3.596-1.326-6.83-2.512-10.065-3.702
			c-0.055,0.116-0.096,0.244-0.159,0.37c1.145,0.67,2.279,1.361,3.594,2.134c-0.402,0.731-0.741,1.347-1.133,2.08
			c-2.504-1.379-4.818-2.65-7.405-4.073C186.128,126.528,193.698,128.437,199.65,125.285"/>
		<path fill="green" d="M45.457,124.755c6.174-2.225,12.349-4.442,18.475-6.658c-3.612-1.942-10.051-1.445-13.129,1.132
			c-3.245,2.693-6.891,3.499-10.925,2.452c-3.247-0.853-6.279-2.188-9.226-4.466c0.795-0.5,1.327-0.891,1.929-1.167
			c4.955-2.301,10.12-3.331,15.596-2.525c8.007,1.168,16.01,2.43,24.028,3.445c6.112,0.787,10.362,4.128,13.705,9.05
			c6.966,10.277,16.025,18.178,26.992,23.913c0.242,0.127,0.476,0.255,0.708,0.396c0.131,0.082,0.247,0.21,0.458,0.392
			c-0.263,1.209-0.731,2.451-0.766,3.725c-0.03,1.589,0.014,3.283,0.564,4.739c0.923,2.536,1.356,4.95,0.491,7.582
			c-2.039,6.27-1.804,12.688-1.098,19.142c0.036,0.298,0,0.629,0,1.15c-4.769-0.606-9.255,0.104-13.442,2.458
			c-4.148,2.332-7.366,5.612-9.854,9.685c-0.661-0.066-1.244-0.066-1.828-0.169c-2.86-0.553-5.429,0.196-7.846,1.717
			c-2.367,1.485-4.892,2.373-7.722,2.714c-3.342,0.383-5.429-1.378-7.796-3.786c1.475,0.14,2.558,0.234,3.638,0.342
			c3.555,0.316,6.819-0.319,9.865-2.354c2.866-1.911,6.172-2.504,9.735-2.484c5.104-6.808,11.729-11.155,20.534-11.784
			c0-2.101-0.182-4.1,0.043-6.065c0.392-3.369,0.931-6.734,1.644-10.043c0.402-1.836,0.698-3.524-0.022-5.377
			c-1.134-2.927-1.55-5.961-0.497-8.951c-3.046-2.164-5.952-4.311-8.92-6.363c-6.853-4.765-12.251-10.882-17.045-17.639
			c-1.708-2.408-3.788-4.583-5.918-6.63c-1.038-1.015-2.522-1.673-3.913-2.174c-2.67-1.008-5.058-0.191-6.31,2.378
			c-2.697,5.505-7.364,6.935-12.833,6.204c-2.725-0.386-5.348-1.596-7.998-2.473c-0.467-0.173-0.852-0.572-1.283-0.869
			C45.479,125.192,45.468,124.966,45.457,124.755 M60.711,121.882c-0.511,0-1.071-0.14-1.518,0.012
			c-2.609,0.878-5.184,1.811-7.765,2.755c-0.454,0.169-0.868,0.457-1.411,0.776c5.926,2.966,13.471,1.292,15.104-3.428
			c-2.557,1.435-4.964,2.758-7.426,4.127c-0.422-0.839-0.719-1.379-1.101-2.1c1.497-0.773,2.822-1.465,4.125-2.155l-0.051-0.093
			L60.711,121.882z M46.487,115.698c-3.416-0.784-9.334,0.328-11.572,1.849c4.837,3.613,12.092,3.369,14.194,0.134
			c-1.996,0.35-3.872,0.701-5.922,1.052c-0.103-0.884-0.178-1.595-0.262-2.356C44.226,116.122,45.364,115.911,46.487,115.698"/>
		<path fill="green" d="M136.228,203.049c0.479-3.2,0.918-6.29,1.377-9.326c6.478-1.076,14.284,3.306,17.03,9.541
			c-3.812,4.545-4.579,9.656-2.097,15.396c-0.965,0.332-1.846,0.627-2.688,0.902c-2.563-3.677-2.33-9.024,0.577-15.844
			c-1.095-3.438-5.972-6.679-9.938-6.468c-0.242,1.376-0.509,2.788-0.805,4.406c5.726,4.778,7.751,11.074,7.242,18.565
			c-1.127,0.211-2.101,0.411-3.36,0.674C144.242,213.613,142.602,207.41,136.228,203.049"/>
		<path fill="green" d="M106.835,220.027c-1.166-0.177-2.133-0.328-3.181-0.474c-0.404-3.586-0.096-6.915,1.089-10.174
			c1.169-3.247,3.05-5.939,5.827-8.112c-0.289-1.53-0.562-3.002-0.828-4.404c-3.817-0.381-8.209,2.434-9.991,6.29
			c2.894,4.911,3.52,10.044,1.166,15.648c-0.974-0.268-1.867-0.502-2.936-0.787c2.416-5.625,1.676-10.691-2.196-15.146
			c1.719-5.737,10.077-10.533,16.712-9.534c0.466,2.958,0.945,5.979,1.422,9.09c-2.767,2.033-4.896,4.482-6.109,7.655
			C106.623,213.211,106.485,216.485,106.835,220.027"/>
		<path fill="green" d="M135.832,207.707c-5.081,3.403-7.824,8.178-7.984,14.413h-2.229c-0.339-5.697,0.868-10.755,5.294-14.628
			c-3.28-3.034-7.917-3.097-11.332-0.147c4.257,3.97,5.528,9.014,5.103,14.775c-0.711-0.041-1.333-0.076-2.122-0.129
			c-0.2-6.204-2.766-11.072-7.849-14.52C119.486,200.641,130.605,200.048,135.832,207.707"/>
		<path fill="green" d="M176.263,207.345c-2.153,1.814-4.116,2.972-6.671,1.878c-0.943-0.401-1.899-0.761-2.786-1.263
			c-2.104-1.104-4.236-1.21-6.102,0.252c-1.983,1.56-2.619,3.746-1.932,6.247c0.139,0.521,0.269,1.041,0.425,1.742
			c-0.869,0.36-1.728,0.722-2.573,1.069c-2.102-3.404-1.595-7.655,1.153-10.756c2.522-2.832,5.972-3.405,9.714-1.757
			c2.006,0.865,4.069,1.613,6.144,2.31C174.321,207.302,175.117,207.238,176.263,207.345"/>
		<path fill="green" d="M94.022,216.964c1.405-2.865,1.432-6.033,0.129-8.815c-1.856-3.966-5.821-5.649-9.973-4.277
			c-1.303,0.428-2.488,1.258-3.797,1.68c-1.876,0.594-3.804,0.976-5.789,1.475c2.716,2.229,4.105,2.494,7.085,1.288
			c0.996-0.405,1.942-0.947,2.937-1.33c2.822-1.079,5.663-0.076,6.664,2.761c0.614,1.75,0.436,4.484,0.604,6.395"/>
		<path fill="green" d="M138.411,210.451c1.782,3.352,2.396,6.819,1.881,10.629c-0.853,0.136-1.616,0.274-2.367,0.402
			c-0.302-2.259-0.565-4.403-0.882-6.882c-2.809,2.055-3.609,4.686-4.416,7.435h-2.874
			C129.776,217.355,134.192,211.374,138.411,210.451"/>
		<path fill="green" d="M112.141,210.08c4.772,1.868,8.357,6.913,8.472,11.901c-0.902-0.076-1.78-0.154-2.821-0.246
			c-0.744-2.7-1.591-5.385-4.336-7.538c-0.374,2.33-0.693,4.39-1.04,6.669c-0.585-0.052-1.338-0.106-2.227-0.19
			C109.679,216.856,110.294,213.415,112.141,210.08"/>
		<path fill="green" d="M48.321,125.487c0,0,5.093,3.003,6.62,2.208c1.527-0.796,7.921-0.662,8.484-2.208
			c0.563-1.545,3.734-4.582,3.734-4.582l-3.227-1.526L48.321,125.487z"/>
		<path fill="green" d="M50.529,117.681c0,0-6.31,3.532-7.923,3.396c-6.119-0.522-7.214-3.194-8.708-3.229
			c-1.497-0.029,1.493-1.524,1.493-1.524s10.386-2.377,11.915-2.039C48.832,114.626,50.529,117.681,50.529,117.681z"/>
		<path fill="green" d="M50.529,107.159c0,0-1.941-3.657-5.261-4.239c-3.863-0.669-9.759,1.683-10.542,3.391
			c-0.783,1.709,12.069,4.583,13.596,4.583C49.847,110.894,50.529,107.159,50.529,107.159z"/>
		<path fill="green" d="M62.238,101.914c0,0-3.225,2.023-4.499,1.683c-1.272-0.338-7.188-0.962-7.211-2.208
			c-0.02-1.24-3.395-2.766-3.902-3.394c-0.508-0.623-3.565-3.222-2.545-3.733c1.02-0.51,7.634-0.85,9.671,0
			c2.037,0.85,5.769,3.255,6.958,4.422C61.898,99.866,62.238,101.914,62.238,101.914z"/>
		<path fill="green" d="M55.45,87.477c0,0-4.243,1.694-4.921,1.018c-0.682-0.678-7.531-2.208-7.923-3.227
			c-0.391-1.016,0.743-3.89,1.985-3.244c1.238,0.646,7.083-1.846,8.46-0.829C54.431,82.215,55.45,87.477,55.45,87.477z"/>
		<path fill="green" d="M54.094,80.955c0,0,3.56-4,5.937-3.832c2.377,0.173,4.411-1.029,5.259-0.008
			c0.85,1.027,0.933-4,0.509-6.789c-0.253-1.686-2.342-5.759-2.542-7.454c-0.2-1.697-3.301-3.29-4.072-1.361
			c-0.773,1.933-0.341,11.373,0.168,12.39c0.511,1.015-2.69-0.266-3.902-2.036c-1.209-1.771-4.414-1.27-5.771-1.91
			c-1.358-0.637-1.677,3.922,0,4.96C51.356,75.958,54.094,80.955,54.094,80.955z"/>
		<path fill="green" d="M77.512,94.944c0,0,2.374-1.19,2.374-2.886c0-1.699-0.849-5.686-1.188-7.254
			c-0.339-1.569-2.206-4.456-2.716-4.625c-0.509-0.169-1.53,0.169-2.039,3.056c-0.507,2.883-1.186,6.106,0,6.957
			C75.133,91.039,77.512,94.944,77.512,94.944z"/>
		<path fill="green" d="M106.187,122.094c0,0,0.68-1.188,0-2.714c-0.679-1.531-3.161-3.46-3.391-5.123
			c-0.237-1.667-5.06-2.185-5.093-3.364c-0.032-1.179-4.241-2.375-4.241-1.358c0,1.02,1.08,7.448,2.882,8.137
			c1.807,0.678,3.736,3.911,5.264,4.422C103.134,122.603,106.187,122.094,106.187,122.094z"/>
		<path fill="green" d="M103.134,106.854c0,0-0.508-5.612-1.697-7.129c-1.189-1.505-5.41-5.568-6.28-4.781
			c-0.87,0.784-3.054-1.359-2.884,0c0.17,1.354,0.339,5.43,1.188,6.618c0.849,1.186,5.003,6.756,6.51,6.107
			C101.48,107.023,103.134,106.854,103.134,106.854z"/>
		<path fill="green" d="M75.133,69.825c0,0,1.887-5.599,1.453-6.783c-0.436-1.189-3.52-5.888-3.846-7.297
			c-0.334-1.412-4.732-3.057-5.581-3.225c-0.853-0.17-1.02,6.428,0,8.111C73.291,70.792,75.133,69.825,75.133,69.825z"/>
		<path fill="green" d="M84.713,82.098c0,0,4.674-2.089,4.505-3.106c-0.17-1.021,0.818-5.028,0.011-6.108
			c-0.804-1.083-0.762-6.544-2.384-7.131c-1.624-0.582-3.901-4.483-4.586-5.123c-0.676-0.645-2.004,1.994-1.652,4.202
			c0.35,2.205,2.844,10.425,2.844,11.615C83.45,77.633,84.713,82.098,84.713,82.098z"/>
		<path fill="green" d="M89.548,54.895c0,0-0.5-2.714,0.687-3.734c1.193-1.019,3.739-3.562,4.753-3.225
			c1.02,0.339,4.711-0.169,4.985,0.678c0.276,0.85,3.162,0.681,3.162,0.681s2.374-3.392,2.545-4.413
			c0.168-1.017,0.933-4.072,0.805-5.09c-0.128-1.019-0.805-4.583-1.313-5.091c-0.511-0.513-3.331,0.581-3.829,1.144
			c-0.5,0.564-1.943,3.436-2.281,4.285c-0.343,0.849-1.358,4.605-1.358,4.605l-1.018,1.336c0,0-1.199-2.939-2.206-4.245
			c-0.974-1.26-3.396-4.07-4.246-4.408c-0.847-0.344-1.865-0.681-2.203,0c-0.34,0.678-0.679,5.091,0,6.275
			c0.678,1.189,1.516,4.583,1.516,4.583l-1.911,0.68c0,0-6.423-0.923-7.75-1.865c-1.327-0.946-5.434-0.338-5.771,0.337
			c-0.339,0.678,1.096,3.574,2.536,3.566c1.442-0.012,3.816,4.889,5.271,3.901c1.452-0.985,6.448,0.137,6.448,0.137L89.548,54.895z"
			/>
		<path fill="green" d="M119.256,52.509c0,0,2.374-1.176,1.867-2.536c-0.509-1.359-0.189-5.812-0.903-7.128
			c-0.708-1.316,0.191-7.475-0.963-8.282c-1.155-0.797,0.488-2.354-1.188-2.407c-1.677-0.056-2.591,3.563-3.245,4.75
			c-0.659,1.19-1.846,4.413-1.846,6.11c0,1.697,0.242,7.394,1.846,7.807c1.6,0.412,0.593,2.375,2.258,2.375
			C118.749,53.197,119.256,52.509,119.256,52.509z"/>
		<path fill="green" d="M111.11,67.793c0,0-0.118-1.251,1.867-2.546c1.983-1.294-0.338-2.812,0-4.72
			c0.34-1.901-0.836-4.548-1.867-5.496c-1.027-0.956-1.188-3.19-2.208-3.53c-1.016-0.341-2.267,2.47-2.404,3.53
			c-0.141,1.051,0.89,5.514-0.013,6.992c-0.899,1.471,1.062,3.729,2.079,4.578C109.583,67.452,111.11,67.793,111.11,67.793z"/>
		<path fill="green" d="M120.272,93.745c0,0,2.769-1.572,2.927-2.227c0.16-0.637-1.206-4.201-1.247-4.878
			c-0.045-0.677,0.665-1.923,0.357-2.726c-0.308-0.809-1.696-4.751-2.038-5.26c-0.337-0.511-1.523,0.518-1.863,2.302
			c-0.341,1.767-1.805,3.774-1.328,6.596c0.476,2.808,1.667,6.194,1.667,6.194H120.272z"/>
		<path fill="green" d="M200.976,125.649c0,0-5.091,3-6.618,2.202c-1.528-0.803-7.924-0.655-8.483-2.202
			c-0.566-1.551-3.737-4.584-3.737-4.584l3.229-1.525L200.976,125.649z"/>
		<path fill="green" d="M198.26,117.843c0,0,6.309,3.516,7.925,3.392c6.117-0.531,7.21-3.193,8.703-3.224
			c1.497-0.043-1.493-1.527-1.493-1.527s-10.384-2.375-11.912-2.035C199.956,114.788,198.26,117.843,198.26,117.843z"/>
		<path fill="green" d="M197.307,107.318c0,0,1.939-3.669,5.26-4.241c3.862-0.678,9.758,1.688,10.542,3.394
			c0.788,1.695-12.069,4.58-13.598,4.58C197.985,111.052,197.307,107.318,197.307,107.318z"/>
		<path fill="green" d="M185.597,102.061c0,0,3.221,2.034,4.497,1.695c1.274-0.34,7.19-0.976,7.213-2.207
			c0.02-1.251,3.392-2.765,3.902-3.393c0.507-0.639,3.561-3.225,2.545-3.733c-1.021-0.51-7.635-0.848-9.675,0
			c-2.036,0.847-5.768,3.245-6.958,4.42C185.934,100.022,185.597,102.061,185.597,102.061z"/>
		<path fill="green" d="M193.857,87.632c0,0,4.243,1.698,4.923,1.017c0.676-0.676,7.529-2.202,7.921-3.22
			c0.396-1.021-0.739-3.891-1.979-3.244c-1.244,0.632-7.089-1.848-8.466-0.829C194.877,82.375,193.857,87.632,193.857,87.632z"/>
		<path fill="green" d="M194.757,81.099c0,0-3.561-3.984-5.939-3.815c-2.375,0.172-4.408-1.04-5.258-0.013
			c-0.845,1.032-0.933-3.996-0.508-6.797c0.255-1.674,2.342-5.751,2.545-7.446c0.201-1.692,3.3-3.288,4.074-1.355
			c0.773,1.927,0.339,11.368-0.172,12.388c-0.511,1.016,2.693-0.274,3.899-2.037c1.214-1.769,4.418-1.271,5.772-1.91
			c1.357-0.634,1.676,3.927,0,4.963C197.495,76.116,194.757,81.099,194.757,81.099z"/>
		<path fill="green" d="M170.32,95.102c0,0-2.373-1.188-2.373-2.885c0-1.695,0.849-5.683,1.185-7.252
			c0.343-1.573,2.21-4.458,2.72-4.627c0.508-0.172,1.528,0.169,2.037,3.054c0.509,2.886,1.188,6.107,0,6.959
			C172.698,91.199,170.32,95.102,170.32,95.102z"/>
		<path fill="green" d="M142.675,122.252c0,0-0.679-1.188,0-2.713c0.679-1.528,3.159-3.459,3.393-5.134
			c0.236-1.655,5.061-2.186,5.095-3.354c0.027-1.176,4.236-2.375,4.236-1.354c0,1.017-1.079,7.44-2.882,8.122
			c-1.806,0.68-3.733,3.923-5.263,4.433C145.729,122.762,142.675,122.252,142.675,122.252z"/>
		<path fill="green" d="M145.714,106.854c0,0,0.512-5.612,1.701-7.129c1.189-1.505,5.409-5.568,6.275-4.781
			c0.874,0.784,3.059-1.359,2.89,0c-0.173,1.354-0.341,5.43-1.191,6.618c-0.846,1.186-5.002,6.756-6.511,6.107
			C147.373,107.023,145.714,106.854,145.714,106.854z"/>
		<path fill="green" d="M174.544,70.941c0,0-3.732-6.557-3.295-7.744c0.434-1.186,3.517-5.896,3.85-7.297
			c0.328-1.421,4.729-3.054,5.575-3.223c0.852-0.169,1.019,6.426,0,8.106C174.544,70.941,174.544,70.941,174.544,70.941z"/>
		<path fill="green" d="M163.122,82.247c0,0-4.676-2.081-4.506-3.098c0.168-1.017-0.817-5.025-0.013-6.109
			c0.806-1.081,0.764-6.555,2.384-7.125c1.626-0.584,3.908-4.498,4.585-5.13c0.678-0.638,2.006,1.99,1.657,4.197
			c-0.353,2.204-2.848,10.436-2.848,11.624C164.382,77.792,163.122,82.247,163.122,82.247z"/>
		<path fill="green" d="M158.284,55.054c0,0,0.5-2.715-0.686-3.736c-1.191-1.018-3.738-3.562-4.754-3.224
			c-1.02,0.34-4.711-0.17-4.987,0.683c-0.272,0.845-3.159,0.677-3.159,0.677s-2.373-3.396-2.545-4.41
			c-0.169-1.018-0.93-4.074-0.805-5.097c0.13-1.015,0.805-4.577,1.312-5.087c0.511-0.51,3.331,0.573,3.829,1.147
			c0.501,0.551,1.944,3.435,2.284,4.282c0.34,0.851,1.356,4.607,1.356,4.607l1.018,1.333c0,0,1.199-2.936,2.204-4.242
			c0.975-1.27,3.396-4.072,4.246-4.412c0.848-0.337,1.865-0.678,2.205,0c0.338,0.68,0.676,5.092,0,6.281
			c-0.68,1.188-1.52,4.579-1.52,4.579l1.911,0.681c0,0,6.426-0.923,7.752-1.869c1.328-0.953,5.433-0.339,5.772,0.34
			c0.34,0.677-1.098,3.574-2.539,3.565c-1.44-0.022-3.814,4.887-5.267,3.903c-1.454-0.998-6.45,0.126-6.45,0.126L158.284,55.054z"/>
		<path fill="green" d="M128.577,52.666c0,0-2.375-1.178-1.865-2.533c0.508-1.355,0.191-5.81,0.902-7.129
			c0.708-1.312-0.192-7.486,0.963-8.282c1.157-0.795-0.484-2.363,1.185-2.404c1.679-0.057,2.594,3.562,3.248,4.749
			c0.661,1.188,1.846,4.415,1.846,6.109c0,1.7-0.24,7.382-1.846,7.808c-1.598,0.412-0.594,2.376-2.259,2.376
			S128.577,52.666,128.577,52.666z"/>
		<path fill="green" d="M137.54,66.317c0,0,0.158,1.294-1.822,0c-1.988-1.291,0.296-5.358-0.042-7.255
			c-0.339-1.908,0.834-4.56,1.864-5.515c1.029-0.943,1.186-3.183,2.204-3.521c1.021-0.338,2.272,2.472,2.409,3.521
			c0.14,1.062-0.889,5.536,0.01,6.999c0.902,1.466-1.524,5.494-2.544,6.343C138.602,67.737,137.54,66.317,137.54,66.317z"/>
		<path fill="green" d="M128.746,93.903c0,0-1.948-1.707-2.107-2.357c-0.163-0.646-0.076-3.169-0.033-3.849
			c0.043-0.678-0.202-2.818,0.106-3.627c0.309-0.805,1.694-4.75,2.034-5.26c0.34-0.508,1.529,0.509,1.867,2.288
			c0.342,1.783,1.803,3.78,1.328,6.599c-0.478,2.824-1.666,6.206-1.666,6.206H128.746z"/>
		<path fill="#FDB748" d="M65.872,83.59c0,1.908-1.547,3.448-3.439,3.448c-1.9,0-3.442-1.54-3.442-3.448
			c0-1.897,1.542-3.447,3.442-3.447C64.325,80.143,65.872,81.693,65.872,83.59z"/>
		<path fill="#FDB748" d="M99.642,54.919c0,1.912-1.545,3.46-3.448,3.46c-1.9,0-3.441-1.548-3.441-3.46
			c0-1.9,1.541-3.445,3.441-3.445C98.096,51.475,99.642,53.02,99.642,54.919z"/>
		<path fill="#FDB748" d="M155.869,54.49c0,1.891-1.542,3.445-3.449,3.445c-1.9,0-3.439-1.555-3.439-3.445
			c0-1.899,1.539-3.46,3.439-3.46C154.327,51.03,155.869,52.591,155.869,54.49z"/>
		<path fill="#FDB748" d="M190.215,83.253c0,1.908-1.548,3.445-3.444,3.445c-1.907,0-3.454-1.537-3.454-3.445
			c0-1.898,1.547-3.452,3.454-3.452C188.667,79.801,190.215,81.355,190.215,83.253z"/>
		<path fill="green" d="M104.229,200.457c1.309-0.039,2.413,1.097,2.446,2.498c0.025,1.366-0.931,2.427-2.243,2.506
			c-1.554,0.074-2.54-0.875-2.558-2.467C101.855,201.504,102.79,200.493,104.229,200.457"/>
		<path fill="green" d="M146.117,201.25c1.468-0.024,2.477,0.997,2.511,2.55c0.029,1.34-1.101,2.501-2.402,2.492
			c-1.375-0.027-2.367-1.063-2.389-2.492C143.819,202.314,144.744,201.273,146.117,201.25"/>
		<path fill="green" d="M125.268,206.301c1.276,0.025,2.425,1.299,2.361,2.613c-0.069,1.366-1.104,2.466-2.311,2.451
			c-1.434-0.012-2.552-1.188-2.533-2.624C122.804,207.388,123.941,206.274,125.268,206.301"/>
		<path fill="green" d="M163.651,213.722c-1.4,0.016-2.495-1.023-2.521-2.388c-0.031-1.515,0.979-2.577,2.477-2.563
			c1.357,0,2.401,1.049,2.443,2.462C166.095,212.598,165.021,213.722,163.651,213.722"/>
		<path fill="green" d="M86.646,208.42c1.302-0.052,2.407,1.1,2.432,2.503c0.032,1.362-0.927,2.422-2.229,2.49
			c-1.554,0.085-2.546-0.864-2.564-2.454C84.271,209.47,85.2,208.456,86.646,208.42"/>
	</g>
</g>
</svg>
